0
SECTION
2
HEADER
9
$INSUNITS
70
4
9
$ACADVER
1
AC1014
9
$HANDSEED
5
FFFF
0
ENDSEC
0
SECTION
2
TABLES
0
TABLE
2
VPORT
5
8
100
AcDbSymbolTable
0
ENDTAB
0
TABLE
2
LTYPE
5
5
100
AcDbSymbolTable
0
LTYPE
5
14
100
AcDbSymbolTableRecord
100
AcDbLinetypeTableRecord
2
BYBLOCK
70
0
0
LTYPE
5
15
100
AcDbSymbolTableRecord
100
AcDbLinetypeTableRecord
2
BYLAYER
70
0
0
ENDTAB
0
TABLE
2
LAYER
5
2
100
AcDbSymbolTable
70
2
0
LAYER
5
50
100
AcDbSymbolTableRecord
100
AcDbLayerTableRecord
2
0
70
0
6
CONTINUOUS
0
ENDTAB
0
TABLE
2
STYLE
5
3
100
AcDbSymbolTable
70
1
0
STYLE
5
11
100
AcDbSymbolTableRecord
100
AcDbTextStyleTableRecord
2
STANDARD
70
0
0
ENDTAB
0
TABLE
2
VIEW
5
6
100
AcDbSymbolTable
70
0
0
ENDTAB
0
TABLE
2
UCS
5
7
100
AcDbSymbolTable
70
0
0
ENDTAB
0
TABLE
2
APPID
5
9
100
AcDbSymbolTable
70
2
0
APPID
5
12
100
AcDbSymbolTableRecord
100
AcDbRegAppTableRecord
2
ACAD
70
0
0
ENDTAB
0
TABLE
2
DIMSTYLE
5
A
100
AcDbSymbolTable
70
1
0
ENDTAB
0
TABLE
2
BLOCK_RECORD
5
1
100
AcDbSymbolTable
70
1
0
BLOCK_RECORD
5
1F
100
AcDbSymbolTableRecord
100
AcDbBlockTableRecord
2
*MODEL_SPACE
0
BLOCK_RECORD
5
1B
100
AcDbSymbolTableRecord
100
AcDbBlockTableRecord
2
*PAPER_SPACE
0
ENDTAB
0
ENDSEC
0
SECTION
2
BLOCKS
0
BLOCK
5
20
100
AcDbEntity
100
AcDbBlockBegin
2
*MODEL_SPACE
0
ENDBLK
5
21
100
AcDbEntity
100
AcDbBlockEnd
0
BLOCK
5
1C
100
AcDbEntity
100
AcDbBlockBegin
2
*PAPER_SPACE
0
ENDBLK
5
1D
100
AcDbEntity
100
AcDbBlockEnd
0
ENDSEC
0
SECTION
2
ENTITIES
0
LWPOLYLINE
5
100
100
AcDbEntity
8
0
100
AcDbPolyline
90
4
70
1
43
0.0
10
-104.31773122214706
20
-126.00000186264515
10
-119.00000177323818
20
-126.00000186264515
10
-119.00000177323818
20
-114.50000172108412
10
-104.31773122214706
20
-114.50000172108412
0
LINE
5
101
100
AcDbEntity
8
0
100
AcDbLine
10
-119.00000177323818
20
-126.00000186264515
30
0
11
-119.00000177323818
21
-128.40685607860991
31
0
0
LINE
5
102
100
AcDbEntity
8
0
100
AcDbLine
10
-119.00000177323818
20
-128.40685607860991
30
0
11
-109.40685585509249
21
-138.0000019967556
31
0
0
LINE
5
103
100
AcDbEntity
8
0
100
AcDbLine
10
-109.40685585509249
20
-138.0000019967556
30
0
11
-100.5000014975667
21
-138.0000019967556
31
0
0
LWPOLYLINE
5
104
100
AcDbEntity
8
0
100
AcDbPolyline
90
4
70
1
43
0.0
10
-100.5000014975667
20
-138.0000019967556
10
-100.5000014975667
20
-123.19000206008553
10
-89.0000014975667
20
-123.19000206008553
10
-89.0000014975667
20
-138.0000019967556
0
LINE
5
105
100
AcDbEntity
8
0
100
AcDbLine
10
-89.0000014975667
20
-138.0000019967556
30
0
11
-86.593147065535106
21
-138.0000019967556
31
0
0
LINE
5
106
100
AcDbEntity
8
0
100
AcDbLine
10
-86.593147065535106
20
-138.0000019967556
30
0
11
-79.093146953776397
21
-130.50000188499689
31
0
0
LINE
5
107
100
AcDbEntity
8
0
100
AcDbLine
10
-79.093146953776397
20
-130.50000188499689
30
0
11
-4.3431458399145928
21
-130.50000188499689
31
0
0
LINE
5
108
100
AcDbEntity
8
0
100
AcDbLine
10
-4.3431458399145928
20
-130.50000188499689
30
0
11
3.9999999999999956
21
-122.15685604508231
31
0
0
LINE
5
109
100
AcDbEntity
8
0
100
AcDbLine
10
3.9999999999999956
20
-122.15685604508231
30
0
11
4
21
-38.843146354004645
31
0
0
LINE
5
110
100
AcDbEntity
8
0
100
AcDbLine
10
4
20
-38.843146354004645
30
0
11
-1.0931457914858123
21
-33.750000562518835
31
0
0
LINE
5
111
100
AcDbEntity
8
0
100
AcDbLine
10
-1.0931457914858123
20
-33.750000562518835
30
0
11
-14.343145988926199
21
-33.750000562518835
31
0
0
LINE
5
112
100
AcDbEntity
8
0
100
AcDbLine
10
-14.343145988926199
20
-33.750000562518835
30
0
11
-38.843146354004652
21
-9.2500001974403823
31
0
0
LINE
5
113
100
AcDbEntity
8
0
100
AcDbLine
10
-38.843146354004652
20
-9.2500001974403823
30
0
11
-67.093146774962449
21
-9.2500001974403823
31
0
0
LINE
5
114
100
AcDbEntity
8
0
100
AcDbLine
10
-67.093146774962449
20
-9.2500001974403823
30
0
11
-72.000001132488251
21
-4.3431458399145839
31
0
0
LINE
5
115
100
AcDbEntity
8
0
100
AcDbLine
10
-72.000001132488251
20
-4.3431458399145839
30
0
11
-72.000001132488251
21
-0.84314578776051974
31
0
0
LINE
5
116
100
AcDbEntity
8
0
100
AcDbLine
10
-72.000001132488251
20
-0.84314578776051974
30
0
11
-76.84314692024877
21
4.0000000000000036
31
0
0
LINE
5
117
100
AcDbEntity
8
0
100
AcDbLine
10
-76.84314692024877
20
4.0000000000000036
30
0
11
-114.40685592959831
21
4.0000000000000036
31
0
0
LINE
5
118
100
AcDbEntity
8
0
100
AcDbLine
10
-114.40685592959831
20
4.0000000000000036
30
0
11
-119.00000171363354
21
-0.5931457840352472
31
0
0
LINE
5
119
100
AcDbEntity
8
0
100
AcDbLine
10
-119.00000171363354
20
-0.5931457840352472
30
0
11
-119.00000177323818
21
-114.50000172108412
31
0
0
CIRCLE
5
120
100
AcDbEntity
8
0
100
AcDbCircle
10
-25.00000037252903
20
-34.000000506639481
30
0
40
2.0000000000000018
210
0
220
0
230
1
0
LWPOLYLINE
5
121
100
AcDbEntity
8
0
100
AcDbPolyline
90
4
70
1
43
0.0
10
-17.000000432133675
20
-79.000001564621925
10
-3.0000004321336715
20
-79.000001564621925
10
-3.0000004321336715
20
-93.000001564621911
10
-17.000000432133675
20
-93.000001564621911
0
LWPOLYLINE
5
122
100
AcDbEntity
8
0
100
AcDbPolyline
90
4
70
1
43
0.0
10
-17.000000432133675
20
-41.000001564621932
10
-3.0000004321336715
20
-41.000001564621932
10
-3.0000004321336715
20
-55.000001564621918
10
-17.000000432133675
20
-55.000001564621918
0
LWPOLYLINE
5
123
100
AcDbEntity
8
0
100
AcDbPolyline
90
4
70
1
43
0.0
10
-74.000000432133675
20
-22.000001564621925
10
-60.000000432133675
20
-22.000001564621925
10
-60.000000432133675
20
-36.000001564621911
10
-74.000000432133675
20
-36.000001564621911
0
LWPOLYLINE
5
124
100
AcDbEntity
8
0
100
AcDbPolyline
90
4
70
1
43
0.0
10
-93.000000432133675
20
-3.0000015646219325
10
-79.000000432133675
20
-3.0000015646219325
10
-79.000000432133675
20
-17.000001564621918
10
-93.000000432133675
20
-17.000001564621918
0
LWPOLYLINE
5
125
100
AcDbEntity
8
0
100
AcDbPolyline
90
4
70
1
43
0.0
10
-112.00000043213367
20
-22.000001564621925
10
-98.000000432133675
20
-22.000001564621925
10
-98.000000432133675
20
-36.000001564621911
10
-112.00000043213367
20
-36.000001564621911
0
LWPOLYLINE
5
126
100
AcDbEntity
8
0
100
AcDbPolyline
90
4
70
1
43
0.0
10
-112.00000043213367
20
-60.000001564621925
10
-98.000000432133675
20
-60.000001564621925
10
-98.000000432133675
20
-74.000001564621911
10
-112.00000043213367
20
-74.000001564621911
0
LWPOLYLINE
5
127
100
AcDbEntity
8
0
100
AcDbPolyline
90
4
70
1
43
0.0
10
-112.00000043213367
20
-98.000001564621925
10
-98.000000432133675
20
-98.000001564621925
10
-98.000000432133675
20
-112.00000156462193
10
-112.00000043213367
20
-112.00000156462193
0
LWPOLYLINE
5
128
100
AcDbEntity
8
0
100
AcDbPolyline
90
4
70
1
43
0.0
10
-112.00000043213367
20
-79.000001564621925
10
-98.000000432133675
20
-79.000001564621925
10
-98.000000432133675
20
-93.000001564621911
10
-112.00000043213367
20
-93.000001564621911
0
LWPOLYLINE
5
129
100
AcDbEntity
8
0
100
AcDbPolyline
90
4
70
1
43
0.0
10
-112.00000043213367
20
-41.000001564621932
10
-98.000000432133675
20
-41.000001564621932
10
-98.000000432133675
20
-55.000001564621918
10
-112.00000043213367
20
-55.000001564621918
0
LWPOLYLINE
5
130
100
AcDbEntity
8
0
100
AcDbPolyline
90
4
70
1
43
0.0
10
-112.00000043213367
20
-3.0000015646219325
10
-98.000000432133675
20
-3.0000015646219325
10
-98.000000432133675
20
-17.000001564621918
10
-112.00000043213367
20
-17.000001564621918
0
LWPOLYLINE
5
131
100
AcDbEntity
8
0
100
AcDbPolyline
90
4
70
1
43
0.0
10
-55.000000432133682
20
-22.000001564621925
10
-41.000000432133675
20
-22.000001564621925
10
-41.000000432133675
20
-36.000001564621911
10
-55.000000432133682
20
-36.000001564621911
0
LWPOLYLINE
5
132
100
AcDbEntity
8
0
100
AcDbPolyline
90
4
70
1
43
0.0
10
-36.000000432133675
20
-41.000001564621932
10
-22.000000432133675
20
-41.000001564621932
10
-22.000000432133675
20
-55.000001564621918
10
-36.000000432133675
20
-55.000001564621918
0
LWPOLYLINE
5
133
100
AcDbEntity
8
0
100
AcDbPolyline
90
4
70
1
43
0.0
10
-17.000000432133675
20
-60.000001564621925
10
-3.0000004321336715
20
-60.000001564621925
10
-3.0000004321336715
20
-74.000001564621911
10
-17.000000432133675
20
-74.000001564621911
0
LWPOLYLINE
5
134
100
AcDbEntity
8
0
100
AcDbPolyline
90
4
70
1
43
0.0
10
-17.000000432133675
20
-98.000001564621925
10
-3.0000004321336715
20
-98.000001564621925
10
-3.0000004321336715
20
-112.00000156462193
10
-17.000000432133675
20
-112.00000156462193
0
CIRCLE
5
135
100
AcDbEntity
8
0
100
AcDbCircle
10
-34.250000510364771
20
-24.75000036880374
30
0
40
1.9999999999999973
210
0
220
0
230
1
0
LWPOLYLINE
5
136
100
AcDbEntity
8
0
100
AcDbPolyline
90
18
70
1
43
0.0
10
0
20
-120.5
10
0
20
-40.500000000000007
10
-2.7500000000000036
20
-37.75
10
-32.25
20
-37.75
10
-38.000000000000007
20
-32
10
-38.000000000000007
20
-15.750000000000002
10
-40.5
20
-13.250000000000002
10
-68.75
20
-13.250000000000002
10
-76
20
-5.9999999999999964
10
-76
20
-2.5
10
-78.5
20
0
10
-112.75
20
0
10
-115
20
-2.2499999999999964
10
-115
20
-126.5
10
-107.62500000000001
20
-133.875
10
-88.250000000000014
20
-133.875
10
-80.875
20
-126.5
10
-5.9999999999999964
20
-126.5
0
LWPOLYLINE
5
137
100
AcDbEntity
8
0
100
AcDbPolyline
90
104
70
1
43
0.0
10
-83.999799999999993
20
-9.9395599999999984
10
-83.999799999999993
20
-10.060400000000001
10
-84.007100000000008
20
-10.181100000000001
10
-84.021699999999996
20
-10.301100000000002
10
-84.043499999999995
20
-10.419999999999998
10
-84.072400000000002
20
-10.537400000000003
10
-84.108300000000014
20
-10.652799999999999
10
-84.151200000000003
20
-10.765799999999999
10
-84.200800000000001
20
-10.876000000000001
10
-84.257000000000005
20
-10.9831
10
-84.319500000000005
20
-11.086499999999999
10
-84.388199999999998
20
-11.185999999999998
10
-84.462699999999998
20
-11.281100000000004
10
-84.542900000000003
20
-11.371600000000001
10
-84.628399999999999
20
-11.457100000000002
10
-84.718900000000005
20
-11.537300000000004
10
-84.813999999999993
20
-11.611799999999999
10
-84.913499999999999
20
-11.6805
10
-85.016900000000021
20
-11.743000000000002
10
-85.123999999999995
20
-11.799200000000001
10
-85.234200000000001
20
-11.848800000000001
10
-85.347200000000001
20
-11.891699999999998
10
-85.462600000000009
20
-11.927599999999998
10
-85.579999999999998
20
-11.956500000000002
10
-85.698899999999995
20
-11.978300000000001
10
-85.818899999999999
20
-11.992900000000004
10
-85.939600000000013
20
-12.000200000000003
10
-86.060400000000001
20
-12.000200000000003
10
-86.181100000000001
20
-11.992900000000004
10
-86.301100000000005
20
-11.978300000000001
10
-86.420000000000016
20
-11.956500000000002
10
-86.537400000000005
20
-11.927599999999998
10
-86.652800000000013
20
-11.891699999999998
10
-86.765799999999999
20
-11.848800000000001
10
-86.876000000000019
20
-11.799200000000001
10
-86.983099999999993
20
-11.743000000000002
10
-87.086500000000001
20
-11.6805
10
-87.186000000000007
20
-11.611799999999999
10
-87.281099999999995
20
-11.537300000000004
10
-87.371600000000015
20
-11.457100000000002
10
-87.457100000000011
20
-11.371600000000001
10
-87.537300000000016
20
-11.281100000000004
10
-87.611800000000017
20
-11.185999999999998
10
-87.680500000000009
20
-11.086499999999999
10
-87.742999999999995
20
-10.9831
10
-87.799200000000013
20
-10.876000000000001
10
-87.848799999999997
20
-10.765799999999999
10
-87.8917
20
-10.652799999999999
10
-87.927599999999998
20
-10.537400000000003
10
-87.956500000000005
20
-10.419999999999998
10
-87.978300000000019
20
-10.301100000000002
10
-87.992900000000006
20
-10.181100000000001
10
-88.000200000000021
20
-10.060400000000001
10
-88.000200000000021
20
-9.9395599999999984
10
-87.992900000000006
20
-9.8188999999999993
10
-87.978300000000019
20
-9.6988999999999983
10
-87.956500000000005
20
-9.5800000000000018
10
-87.927599999999998
20
-9.4626400000000022
10
-87.8917
20
-9.3472299999999997
10
-87.848799999999997
20
-9.2342099999999974
10
-87.799200000000013
20
-9.1239799999999995
10
-87.742999999999995
20
-9.01694
10
-87.680500000000009
20
-8.9135000000000009
10
-87.611800000000017
20
-8.8140199999999993
10
-87.537300000000016
20
-8.7188599999999994
10
-87.457100000000011
20
-8.6283799999999999
10
-87.371600000000015
20
-8.5429099999999991
10
-87.281099999999995
20
-8.4627499999999998
10
-87.186000000000007
20
-8.3882000000000012
10
-87.086500000000001
20
-8.3195300000000003
10
-86.983099999999993
20
-8.2569999999999979
10
-86.876000000000019
20
-8.200820000000002
10
-86.765799999999999
20
-8.151209999999999
10
-86.652800000000013
20
-8.1083499999999997
10
-86.537400000000005
20
-8.0723900000000004
10
-86.420000000000016
20
-8.0434599999999978
10
-86.301100000000005
20
-8.0216699999999985
10
-86.181100000000001
20
-8.0071000000000012
10
-86.060400000000001
20
-7.9998000000000014
10
-85.939600000000013
20
-7.9998000000000014
10
-85.818899999999999
20
-8.0071000000000012
10
-85.698899999999995
20
-8.0216699999999985
10
-85.579999999999998
20
-8.0434599999999978
10
-85.462600000000009
20
-8.0723900000000004
10
-85.347200000000001
20
-8.1083499999999997
10
-85.234200000000001
20
-8.151209999999999
10
-85.123999999999995
20
-8.200820000000002
10
-85.016900000000021
20
-8.2569999999999979
10
-84.913499999999999
20
-8.3195300000000003
10
-84.813999999999993
20
-8.3882000000000012
10
-84.718900000000005
20
-8.4627499999999998
10
-84.628399999999999
20
-8.5429099999999991
10
-84.542900000000003
20
-8.6283799999999999
10
-84.462699999999998
20
-8.7188599999999994
10
-84.388199999999998
20
-8.8140199999999993
10
-84.319500000000005
20
-8.9135000000000009
10
-84.257000000000005
20
-9.01694
10
-84.200800000000001
20
-9.1239799999999995
10
-84.151200000000003
20
-9.2342099999999974
10
-84.108300000000014
20
-9.3472299999999997
10
-84.072400000000002
20
-9.4626400000000022
10
-84.043499999999995
20
-9.5800000000000018
10
-84.021699999999996
20
-9.6988999999999983
10
-84.007100000000008
20
-9.8188999999999993
0
LWPOLYLINE
5
138
100
AcDbEntity
8
0
100
AcDbPolyline
90
104
70
1
43
0.0
10
-7.9997999999999969
20
-85.939600000000013
10
-7.9997999999999969
20
-86.060400000000001
10
-8.0071000000000048
20
-86.181100000000001
10
-8.0216699999999985
20
-86.301100000000005
10
-8.0434599999999978
20
-86.420000000000016
10
-8.0723900000000004
20
-86.537400000000005
10
-8.1083499999999997
20
-86.652800000000013
10
-8.1512100000000043
20
-86.765799999999999
10
-8.200820000000002
20
-86.876000000000019
10
-8.2570000000000032
20
-86.983099999999993
10
-8.3195300000000039
20
-87.086500000000001
10
-8.3882000000000012
20
-87.186000000000007
10
-8.4627500000000033
20
-87.281099999999995
10
-8.5429099999999991
20
-87.371600000000015
10
-8.6283799999999999
20
-87.457100000000011
10
-8.7188599999999994
20
-87.537300000000016
10
-8.8140199999999957
20
-87.611800000000017
10
-8.9135000000000009
20
-87.680500000000009
10
-9.01694
20
-87.742999999999995
10
-9.123979999999996
20
-87.799200000000013
10
-9.2342100000000027
20
-87.848799999999997
10
-9.3472299999999997
20
-87.8917
10
-9.4626400000000022
20
-87.927599999999998
10
-9.5800000000000018
20
-87.956500000000005
10
-9.6989000000000036
20
-87.978300000000019
10
-9.8188999999999993
20
-87.992900000000006
10
-9.9395599999999984
20
-88.000200000000021
10
-10.060400000000005
20
-88.000200000000021
10
-10.181100000000001
20
-87.992900000000006
10
-10.301100000000005
20
-87.978300000000019
10
-10.419999999999998
20
-87.956500000000005
10
-10.537400000000003
20
-87.927599999999998
10
-10.652799999999996
20
-87.8917
10
-10.765799999999999
20
-87.848799999999997
10
-10.876000000000001
20
-87.799200000000013
10
-10.983099999999997
20
-87.742999999999995
10
-11.086499999999999
20
-87.680500000000009
10
-11.185999999999998
20
-87.611800000000017
10
-11.281100000000004
20
-87.537300000000016
10
-11.371599999999997
20
-87.457100000000011
10
-11.457100000000002
20
-87.371600000000015
10
-11.537300000000004
20
-87.281099999999995
10
-11.611799999999999
20
-87.186000000000007
10
-11.6805
20
-87.086500000000001
10
-11.743000000000006
20
-86.983099999999993
10
-11.799200000000001
20
-86.876000000000019
10
-11.848799999999997
20
-86.765799999999999
10
-11.891699999999998
20
-86.652800000000013
10
-11.927599999999998
20
-86.537400000000005
10
-11.956500000000005
20
-86.420000000000016
10
-11.978299999999997
20
-86.301100000000005
10
-11.992900000000004
20
-86.181100000000001
10
-12.000200000000003
20
-86.060400000000001
10
-12.000200000000003
20
-85.939600000000013
10
-11.992900000000004
20
-85.818899999999999
10
-11.978299999999997
20
-85.698899999999995
10
-11.956500000000005
20
-85.579999999999998
10
-11.927599999999998
20
-85.462600000000009
10
-11.891699999999998
20
-85.347200000000001
10
-11.848799999999997
20
-85.234200000000001
10
-11.799200000000001
20
-85.123999999999995
10
-11.743000000000006
20
-85.016900000000021
10
-11.6805
20
-84.913499999999999
10
-11.611799999999999
20
-84.813999999999993
10
-11.537300000000004
20
-84.718900000000005
10
-11.457100000000002
20
-84.628399999999999
10
-11.371599999999997
20
-84.542900000000003
10
-11.281100000000004
20
-84.462699999999998
10
-11.185999999999998
20
-84.388199999999998
10
-11.086499999999999
20
-84.319500000000005
10
-10.983099999999997
20
-84.257000000000005
10
-10.876000000000001
20
-84.200800000000001
10
-10.765799999999999
20
-84.151200000000003
10
-10.652799999999996
20
-84.108300000000014
10
-10.537400000000003
20
-84.072400000000002
10
-10.419999999999998
20
-84.043499999999995
10
-10.301100000000005
20
-84.021699999999996
10
-10.181100000000001
20
-84.007100000000008
10
-10.060400000000005
20
-83.999799999999993
10
-9.9395599999999984
20
-83.999799999999993
10
-9.8188999999999993
20
-84.007100000000008
10
-9.6989000000000036
20
-84.021699999999996
10
-9.5800000000000018
20
-84.043499999999995
10
-9.4626400000000022
20
-84.072400000000002
10
-9.3472299999999997
20
-84.108300000000014
10
-9.2342100000000027
20
-84.151200000000003
10
-9.123979999999996
20
-84.200800000000001
10
-9.01694
20
-84.257000000000005
10
-8.9135000000000009
20
-84.319500000000005
10
-8.8140199999999957
20
-84.388199999999998
10
-8.7188599999999994
20
-84.462699999999998
10
-8.6283799999999999
20
-84.542900000000003
10
-8.5429099999999991
20
-84.628399999999999
10
-8.4627500000000033
20
-84.718900000000005
10
-8.3882000000000012
20
-84.813999999999993
10
-8.3195300000000039
20
-84.913499999999999
10
-8.2570000000000032
20
-85.016900000000021
10
-8.200820000000002
20
-85.123999999999995
10
-8.1512100000000043
20
-85.234200000000001
10
-8.1083499999999997
20
-85.347200000000001
10
-8.0723900000000004
20
-85.462600000000009
10
-8.0434599999999978
20
-85.579999999999998
10
-8.0216699999999985
20
-85.698899999999995
10
-8.0071000000000048
20
-85.818899999999999
0
LWPOLYLINE
5
139
100
AcDbEntity
8
0
100
AcDbPolyline
90
104
70
1
43
0.0
10
-26.9998
20
-47.939599999999999
10
-26.9998
20
-48.060400000000001
10
-27.007100000000008
20
-48.181100000000008
10
-27.021700000000006
20
-48.301100000000005
10
-27.043499999999998
20
-48.420000000000002
10
-27.072400000000005
20
-48.537400000000005
10
-27.108299999999996
20
-48.652799999999999
10
-27.151200000000006
20
-48.765800000000006
10
-27.200800000000001
20
-48.875999999999998
10
-27.256999999999998
20
-48.983100000000007
10
-27.319500000000005
20
-49.086500000000008
10
-27.388200000000005
20
-49.186000000000007
10
-27.462700000000009
20
-49.281100000000002
10
-27.542900000000003
20
-49.371600000000001
10
-27.628400000000006
20
-49.457099999999997
10
-27.718900000000009
20
-49.537300000000002
10
-27.813999999999997
20
-49.611800000000002
10
-27.913499999999996
20
-49.680500000000009
10
-28.016900000000007
20
-49.743000000000002
10
-28.124000000000002
20
-49.799199999999999
10
-28.234200000000005
20
-49.848800000000004
10
-28.347200000000008
20
-49.891700000000007
10
-28.462600000000002
20
-49.927600000000005
10
-28.580000000000005
20
-49.956500000000005
10
-28.698899999999998
20
-49.978300000000004
10
-28.818900000000003
20
-49.992900000000006
10
-28.939599999999999
20
-50.0002
10
-29.060400000000008
20
-50.0002
10
-29.181100000000004
20
-49.992900000000006
10
-29.301100000000009
20
-49.978300000000004
10
-29.420000000000002
20
-49.956500000000005
10
-29.537399999999998
20
-49.927600000000005
10
-29.652799999999999
20
-49.891700000000007
10
-29.765800000000002
20
-49.848800000000004
10
-29.876000000000005
20
-49.799199999999999
10
-29.9831
20
-49.743000000000002
10
-30.086500000000001
20
-49.680500000000009
10
-30.186
20
-49.611800000000002
10
-30.281099999999999
20
-49.537300000000002
10
-30.371600000000001
20
-49.457099999999997
10
-30.457099999999997
20
-49.371600000000001
10
-30.537299999999998
20
-49.281100000000002
10
-30.611800000000002
20
-49.186000000000007
10
-30.680499999999995
20
-49.086500000000008
10
-30.743000000000002
20
-48.983100000000007
10
-30.799199999999995
20
-48.875999999999998
10
-30.848800000000001
20
-48.765800000000006
10
-30.8917
20
-48.652799999999999
10
-30.927600000000002
20
-48.537400000000005
10
-30.956499999999998
20
-48.420000000000002
10
-30.978300000000001
20
-48.301100000000005
10
-30.992899999999999
20
-48.181100000000008
10
-31.000200000000007
20
-48.060400000000001
10
-31.000200000000007
20
-47.939599999999999
10
-30.992899999999999
20
-47.818899999999999
10
-30.978300000000001
20
-47.698900000000002
10
-30.956499999999998
20
-47.579999999999998
10
-30.927600000000002
20
-47.462600000000002
10
-30.8917
20
-47.347200000000001
10
-30.848800000000001
20
-47.234200000000001
10
-30.799199999999995
20
-47.124000000000009
10
-30.743000000000002
20
-47.0169
10
-30.680499999999995
20
-46.913499999999999
10
-30.611800000000002
20
-46.814
10
-30.537299999999998
20
-46.718900000000005
10
-30.457099999999997
20
-46.628399999999999
10
-30.371600000000001
20
-46.542900000000003
10
-30.281099999999999
20
-46.462700000000005
10
-30.186
20
-46.388199999999998
10
-30.086500000000001
20
-46.319499999999998
10
-29.9831
20
-46.257000000000005
10
-29.876000000000005
20
-46.200800000000008
10
-29.765800000000002
20
-46.151200000000003
10
-29.652799999999999
20
-46.1083
10
-29.537399999999998
20
-46.072400000000002
10
-29.420000000000002
20
-46.043500000000002
10
-29.301100000000009
20
-46.021700000000003
10
-29.181100000000004
20
-46.007100000000001
10
-29.060400000000008
20
-45.999800000000008
10
-28.939599999999999
20
-45.999800000000008
10
-28.818900000000003
20
-46.007100000000001
10
-28.698899999999998
20
-46.021700000000003
10
-28.580000000000005
20
-46.043500000000002
10
-28.462600000000002
20
-46.072400000000002
10
-28.347200000000008
20
-46.1083
10
-28.234200000000005
20
-46.151200000000003
10
-28.124000000000002
20
-46.200800000000008
10
-28.016900000000007
20
-46.257000000000005
10
-27.913499999999996
20
-46.319499999999998
10
-27.813999999999997
20
-46.388199999999998
10
-27.718900000000009
20
-46.462700000000005
10
-27.628400000000006
20
-46.542900000000003
10
-27.542900000000003
20
-46.628399999999999
10
-27.462700000000009
20
-46.718900000000005
10
-27.388200000000005
20
-46.814
10
-27.319500000000005
20
-46.913499999999999
10
-27.256999999999998
20
-47.0169
10
-27.200800000000001
20
-47.124000000000009
10
-27.151200000000006
20
-47.234200000000001
10
-27.108299999999996
20
-47.347200000000001
10
-27.072400000000005
20
-47.462600000000002
10
-27.043499999999998
20
-47.579999999999998
10
-27.021700000000006
20
-47.698900000000002
10
-27.007100000000008
20
-47.818899999999999
0
LWPOLYLINE
5
140
100
AcDbEntity
8
0
100
AcDbPolyline
90
104
70
1
43
0.0
10
-7.9997999999999969
20
-66.939600000000013
10
-7.9997999999999969
20
-67.060400000000001
10
-8.0071000000000048
20
-67.181100000000001
10
-8.0216699999999985
20
-67.301100000000005
10
-8.0434599999999978
20
-67.420000000000016
10
-8.0723900000000004
20
-67.537400000000005
10
-8.1083499999999997
20
-67.652800000000013
10
-8.1512100000000043
20
-67.765799999999999
10
-8.200820000000002
20
-67.876000000000005
10
-8.2570000000000032
20
-67.983099999999993
10
-8.3195300000000039
20
-68.086500000000001
10
-8.3882000000000012
20
-68.186000000000007
10
-8.4627500000000033
20
-68.281099999999995
10
-8.5429099999999991
20
-68.371600000000001
10
-8.6283799999999999
20
-68.457099999999997
10
-8.7188599999999994
20
-68.537300000000002
10
-8.8140199999999957
20
-68.611800000000017
10
-8.9135000000000009
20
-68.680499999999995
10
-9.01694
20
-68.742999999999995
10
-9.123979999999996
20
-68.799199999999999
10
-9.2342100000000027
20
-68.848799999999997
10
-9.3472299999999997
20
-68.8917
10
-9.4626400000000022
20
-68.927599999999998
10
-9.5800000000000018
20
-68.956500000000005
10
-9.6989000000000036
20
-68.978300000000004
10
-9.8188999999999993
20
-68.992900000000006
10
-9.9395599999999984
20
-69.000200000000007
10
-10.060400000000005
20
-69.000200000000007
10
-10.181100000000001
20
-68.992900000000006
10
-10.301100000000005
20
-68.978300000000004
10
-10.419999999999998
20
-68.956500000000005
10
-10.537400000000003
20
-68.927599999999998
10
-10.652799999999996
20
-68.8917
10
-10.765799999999999
20
-68.848799999999997
10
-10.876000000000001
20
-68.799199999999999
10
-10.983099999999997
20
-68.742999999999995
10
-11.086499999999999
20
-68.680499999999995
10
-11.185999999999998
20
-68.611800000000017
10
-11.281100000000004
20
-68.537300000000002
10
-11.371599999999997
20
-68.457099999999997
10
-11.457100000000002
20
-68.371600000000001
10
-11.537300000000004
20
-68.281099999999995
10
-11.611799999999999
20
-68.186000000000007
10
-11.6805
20
-68.086500000000001
10
-11.743000000000006
20
-67.983099999999993
10
-11.799200000000001
20
-67.876000000000005
10
-11.848799999999997
20
-67.765799999999999
10
-11.891699999999998
20
-67.652800000000013
10
-11.927599999999998
20
-67.537400000000005
10
-11.956500000000005
20
-67.420000000000016
10
-11.978299999999997
20
-67.301100000000005
10
-11.992900000000004
20
-67.181100000000001
10
-12.000200000000003
20
-67.060400000000001
10
-12.000200000000003
20
-66.939600000000013
10
-11.992900000000004
20
-66.818899999999999
10
-11.978299999999997
20
-66.698899999999995
10
-11.956500000000005
20
-66.579999999999998
10
-11.927599999999998
20
-66.462599999999995
10
-11.891699999999998
20
-66.347200000000001
10
-11.848799999999997
20
-66.234200000000001
10
-11.799200000000001
20
-66.123999999999995
10
-11.743000000000006
20
-66.016900000000021
10
-11.6805
20
-65.913499999999999
10
-11.611799999999999
20
-65.813999999999993
10
-11.537300000000004
20
-65.718900000000005
10
-11.457100000000002
20
-65.628399999999999
10
-11.371599999999997
20
-65.542900000000003
10
-11.281100000000004
20
-65.462699999999998
10
-11.185999999999998
20
-65.388199999999998
10
-11.086499999999999
20
-65.319500000000005
10
-10.983099999999997
20
-65.257000000000005
10
-10.876000000000001
20
-65.200800000000001
10
-10.765799999999999
20
-65.151200000000003
10
-10.652799999999996
20
-65.1083
10
-10.537400000000003
20
-65.072400000000002
10
-10.419999999999998
20
-65.043499999999995
10
-10.301100000000005
20
-65.021699999999996
10
-10.181100000000001
20
-65.007099999999994
10
-10.060400000000005
20
-64.999799999999993
10
-9.9395599999999984
20
-64.999799999999993
10
-9.8188999999999993
20
-65.007099999999994
10
-9.6989000000000036
20
-65.021699999999996
10
-9.5800000000000018
20
-65.043499999999995
10
-9.4626400000000022
20
-65.072400000000002
10
-9.3472299999999997
20
-65.1083
10
-9.2342100000000027
20
-65.151200000000003
10
-9.123979999999996
20
-65.200800000000001
10
-9.01694
20
-65.257000000000005
10
-8.9135000000000009
20
-65.319500000000005
10
-8.8140199999999957
20
-65.388199999999998
10
-8.7188599999999994
20
-65.462699999999998
10
-8.6283799999999999
20
-65.542900000000003
10
-8.5429099999999991
20
-65.628399999999999
10
-8.4627500000000033
20
-65.718900000000005
10
-8.3882000000000012
20
-65.813999999999993
10
-8.3195300000000039
20
-65.913499999999999
10
-8.2570000000000032
20
-66.016900000000021
10
-8.200820000000002
20
-66.123999999999995
10
-8.1512100000000043
20
-66.234200000000001
10
-8.1083499999999997
20
-66.347200000000001
10
-8.0723900000000004
20
-66.462599999999995
10
-8.0434599999999978
20
-66.579999999999998
10
-8.0216699999999985
20
-66.698899999999995
10
-8.0071000000000048
20
-66.818899999999999
0
LWPOLYLINE
5
141
100
AcDbEntity
8
0
100
AcDbPolyline
90
104
70
1
43
0.0
10
-7.9997999999999969
20
-47.939599999999999
10
-7.9997999999999969
20
-48.060400000000001
10
-8.0071000000000048
20
-48.181100000000008
10
-8.0216699999999985
20
-48.301100000000005
10
-8.0434599999999978
20
-48.420000000000002
10
-8.0723900000000004
20
-48.537400000000005
10
-8.1083499999999997
20
-48.652799999999999
10
-8.1512100000000043
20
-48.765800000000006
10
-8.200820000000002
20
-48.875999999999998
10
-8.2570000000000032
20
-48.983100000000007
10
-8.3195300000000039
20
-49.086500000000008
10
-8.3882000000000012
20
-49.186000000000007
10
-8.4627500000000033
20
-49.281100000000002
10
-8.5429099999999991
20
-49.371600000000001
10
-8.6283799999999999
20
-49.457099999999997
10
-8.7188599999999994
20
-49.537300000000002
10
-8.8140199999999957
20
-49.611800000000002
10
-8.9135000000000009
20
-49.680500000000009
10
-9.01694
20
-49.743000000000002
10
-9.123979999999996
20
-49.799199999999999
10
-9.2342100000000027
20
-49.848800000000004
10
-9.3472299999999997
20
-49.891700000000007
10
-9.4626400000000022
20
-49.927600000000005
10
-9.5800000000000018
20
-49.956500000000005
10
-9.6989000000000036
20
-49.978300000000004
10
-9.8188999999999993
20
-49.992900000000006
10
-9.9395599999999984
20
-50.0002
10
-10.060400000000005
20
-50.0002
10
-10.181100000000001
20
-49.992900000000006
10
-10.301100000000005
20
-49.978300000000004
10
-10.419999999999998
20
-49.956500000000005
10
-10.537400000000003
20
-49.927600000000005
10
-10.652799999999996
20
-49.891700000000007
10
-10.765799999999999
20
-49.848800000000004
10
-10.876000000000001
20
-49.799199999999999
10
-10.983099999999997
20
-49.743000000000002
10
-11.086499999999999
20
-49.680500000000009
10
-11.185999999999998
20
-49.611800000000002
10
-11.281100000000004
20
-49.537300000000002
10
-11.371599999999997
20
-49.457099999999997
10
-11.457100000000002
20
-49.371600000000001
10
-11.537300000000004
20
-49.281100000000002
10
-11.611799999999999
20
-49.186000000000007
10
-11.6805
20
-49.086500000000008
10
-11.743000000000006
20
-48.983100000000007
10
-11.799200000000001
20
-48.875999999999998
10
-11.848799999999997
20
-48.765800000000006
10
-11.891699999999998
20
-48.652799999999999
10
-11.927599999999998
20
-48.537400000000005
10
-11.956500000000005
20
-48.420000000000002
10
-11.978299999999997
20
-48.301100000000005
10
-11.992900000000004
20
-48.181100000000008
10
-12.000200000000003
20
-48.060400000000001
10
-12.000200000000003
20
-47.939599999999999
10
-11.992900000000004
20
-47.818899999999999
10
-11.978299999999997
20
-47.698900000000002
10
-11.956500000000005
20
-47.579999999999998
10
-11.927599999999998
20
-47.462600000000002
10
-11.891699999999998
20
-47.347200000000001
10
-11.848799999999997
20
-47.234200000000001
10
-11.799200000000001
20
-47.124000000000009
10
-11.743000000000006
20
-47.0169
10
-11.6805
20
-46.913499999999999
10
-11.611799999999999
20
-46.814
10
-11.537300000000004
20
-46.718900000000005
10
-11.457100000000002
20
-46.628399999999999
10
-11.371599999999997
20
-46.542900000000003
10
-11.281100000000004
20
-46.462700000000005
10
-11.185999999999998
20
-46.388199999999998
10
-11.086499999999999
20
-46.319499999999998
10
-10.983099999999997
20
-46.257000000000005
10
-10.876000000000001
20
-46.200800000000008
10
-10.765799999999999
20
-46.151200000000003
10
-10.652799999999996
20
-46.1083
10
-10.537400000000003
20
-46.072400000000002
10
-10.419999999999998
20
-46.043500000000002
10
-10.301100000000005
20
-46.021700000000003
10
-10.181100000000001
20
-46.007100000000001
10
-10.060400000000005
20
-45.999800000000008
10
-9.9395599999999984
20
-45.999800000000008
10
-9.8188999999999993
20
-46.007100000000001
10
-9.6989000000000036
20
-46.021700000000003
10
-9.5800000000000018
20
-46.043500000000002
10
-9.4626400000000022
20
-46.072400000000002
10
-9.3472299999999997
20
-46.1083
10
-9.2342100000000027
20
-46.151200000000003
10
-9.123979999999996
20
-46.200800000000008
10
-9.01694
20
-46.257000000000005
10
-8.9135000000000009
20
-46.319499999999998
10
-8.8140199999999957
20
-46.388199999999998
10
-8.7188599999999994
20
-46.462700000000005
10
-8.6283799999999999
20
-46.542900000000003
10
-8.5429099999999991
20
-46.628399999999999
10
-8.4627500000000033
20
-46.718900000000005
10
-8.3882000000000012
20
-46.814
10
-8.3195300000000039
20
-46.913499999999999
10
-8.2570000000000032
20
-47.0169
10
-8.200820000000002
20
-47.124000000000009
10
-8.1512100000000043
20
-47.234200000000001
10
-8.1083499999999997
20
-47.347200000000001
10
-8.0723900000000004
20
-47.462600000000002
10
-8.0434599999999978
20
-47.579999999999998
10
-8.0216699999999985
20
-47.698900000000002
10
-8.0071000000000048
20
-47.818899999999999
0
LWPOLYLINE
5
142
100
AcDbEntity
8
0
100
AcDbPolyline
90
104
70
1
43
0.0
10
-45.999800000000008
20
-28.939599999999999
10
-45.999800000000008
20
-29.060400000000005
10
-46.007100000000001
20
-29.181100000000004
10
-46.021700000000003
20
-29.301100000000005
10
-46.043500000000002
20
-29.420000000000002
10
-46.072400000000002
20
-29.537400000000002
10
-46.1083
20
-29.652799999999999
10
-46.151200000000003
20
-29.765800000000002
10
-46.200800000000008
20
-29.876000000000005
10
-46.257000000000005
20
-29.9831
10
-46.319499999999998
20
-30.086500000000001
10
-46.388199999999998
20
-30.186
10
-46.462700000000005
20
-30.281099999999999
10
-46.542900000000003
20
-30.371600000000001
10
-46.628399999999999
20
-30.457100000000001
10
-46.718900000000005
20
-30.537299999999998
10
-46.814
20
-30.611800000000002
10
-46.913499999999999
20
-30.680499999999999
10
-47.0169
20
-30.743000000000002
10
-47.124000000000009
20
-30.799199999999999
10
-47.234200000000001
20
-30.848800000000001
10
-47.347200000000001
20
-30.8917
10
-47.462600000000002
20
-30.927600000000002
10
-47.579999999999998
20
-30.956499999999998
10
-47.698900000000002
20
-30.978300000000001
10
-47.818899999999999
20
-30.992899999999999
10
-47.939599999999999
20
-31.000200000000003
10
-48.060400000000001
20
-31.000200000000003
10
-48.181100000000008
20
-30.992899999999999
10
-48.301100000000005
20
-30.978300000000001
10
-48.420000000000002
20
-30.956499999999998
10
-48.537400000000005
20
-30.927600000000002
10
-48.652799999999999
20
-30.8917
10
-48.765800000000006
20
-30.848800000000001
10
-48.875999999999998
20
-30.799199999999999
10
-48.983100000000007
20
-30.743000000000002
10
-49.086500000000008
20
-30.680499999999999
10
-49.186000000000007
20
-30.611800000000002
10
-49.281100000000002
20
-30.537299999999998
10
-49.371600000000001
20
-30.457100000000001
10
-49.457099999999997
20
-30.371600000000001
10
-49.537300000000002
20
-30.281099999999999
10
-49.611800000000002
20
-30.186
10
-49.680500000000009
20
-30.086500000000001
10
-49.743000000000002
20
-29.9831
10
-49.799199999999999
20
-29.876000000000005
10
-49.848800000000004
20
-29.765800000000002
10
-49.891700000000007
20
-29.652799999999999
10
-49.927600000000005
20
-29.537400000000002
10
-49.956500000000005
20
-29.420000000000002
10
-49.978300000000004
20
-29.301100000000005
10
-49.992900000000006
20
-29.181100000000004
10
-50.0002
20
-29.060400000000005
10
-50.0002
20
-28.939599999999999
10
-49.992900000000006
20
-28.818900000000003
10
-49.978300000000004
20
-28.698899999999998
10
-49.956500000000005
20
-28.580000000000002
10
-49.927600000000005
20
-28.462600000000002
10
-49.891700000000007
20
-28.347200000000004
10
-49.848800000000004
20
-28.234200000000005
10
-49.799199999999999
20
-28.124000000000002
10
-49.743000000000002
20
-28.016900000000003
10
-49.680500000000009
20
-27.913499999999999
10
-49.611800000000002
20
-27.814
10
-49.537300000000002
20
-27.718900000000005
10
-49.457099999999997
20
-27.628400000000003
10
-49.371600000000001
20
-27.542900000000003
10
-49.281100000000002
20
-27.462700000000005
10
-49.186000000000007
20
-27.388200000000005
10
-49.086500000000008
20
-27.319500000000005
10
-48.983100000000007
20
-27.257000000000001
10
-48.875999999999998
20
-27.200800000000001
10
-48.765800000000006
20
-27.151200000000003
10
-48.652799999999999
20
-27.1083
10
-48.537400000000005
20
-27.072400000000002
10
-48.420000000000002
20
-27.043500000000002
10
-48.301100000000005
20
-27.021700000000003
10
-48.181100000000008
20
-27.007100000000005
10
-48.060400000000001
20
-26.9998
10
-47.939599999999999
20
-26.9998
10
-47.818899999999999
20
-27.007100000000005
10
-47.698900000000002
20
-27.021700000000003
10
-47.579999999999998
20
-27.043500000000002
10
-47.462600000000002
20
-27.072400000000002
10
-47.347200000000001
20
-27.1083
10
-47.234200000000001
20
-27.151200000000003
10
-47.124000000000009
20
-27.200800000000001
10
-47.0169
20
-27.257000000000001
10
-46.913499999999999
20
-27.319500000000005
10
-46.814
20
-27.388200000000005
10
-46.718900000000005
20
-27.462700000000005
10
-46.628399999999999
20
-27.542900000000003
10
-46.542900000000003
20
-27.628400000000003
10
-46.462700000000005
20
-27.718900000000005
10
-46.388199999999998
20
-27.814
10
-46.319499999999998
20
-27.913499999999999
10
-46.257000000000005
20
-28.016900000000003
10
-46.200800000000008
20
-28.124000000000002
10
-46.151200000000003
20
-28.234200000000005
10
-46.1083
20
-28.347200000000004
10
-46.072400000000002
20
-28.462600000000002
10
-46.043500000000002
20
-28.580000000000002
10
-46.021700000000003
20
-28.698899999999998
10
-46.007100000000001
20
-28.818900000000003
0
LWPOLYLINE
5
143
100
AcDbEntity
8
0
100
AcDbPolyline
90
104
70
1
43
0.0
10
-64.999799999999993
20
-28.939599999999999
10
-64.999799999999993
20
-29.060400000000005
10
-65.007099999999994
20
-29.181100000000004
10
-65.021699999999996
20
-29.301100000000005
10
-65.043499999999995
20
-29.420000000000002
10
-65.072400000000002
20
-29.537400000000002
10
-65.1083
20
-29.652799999999999
10
-65.151200000000003
20
-29.765800000000002
10
-65.200800000000001
20
-29.876000000000005
10
-65.257000000000005
20
-29.9831
10
-65.319500000000005
20
-30.086500000000001
10
-65.388199999999998
20
-30.186
10
-65.462699999999998
20
-30.281099999999999
10
-65.542900000000003
20
-30.371600000000001
10
-65.628399999999999
20
-30.457100000000001
10
-65.718900000000005
20
-30.537299999999998
10
-65.813999999999993
20
-30.611800000000002
10
-65.913499999999999
20
-30.680499999999999
10
-66.016900000000021
20
-30.743000000000002
10
-66.123999999999995
20
-30.799199999999999
10
-66.234200000000001
20
-30.848800000000001
10
-66.347200000000001
20
-30.8917
10
-66.462599999999995
20
-30.927600000000002
10
-66.579999999999998
20
-30.956499999999998
10
-66.698899999999995
20
-30.978300000000001
10
-66.818899999999999
20
-30.992899999999999
10
-66.939600000000013
20
-31.000200000000003
10
-67.060400000000001
20
-31.000200000000003
10
-67.181100000000001
20
-30.992899999999999
10
-67.301100000000005
20
-30.978300000000001
10
-67.420000000000016
20
-30.956499999999998
10
-67.537400000000005
20
-30.927600000000002
10
-67.652800000000013
20
-30.8917
10
-67.765799999999999
20
-30.848800000000001
10
-67.876000000000005
20
-30.799199999999999
10
-67.983099999999993
20
-30.743000000000002
10
-68.086500000000001
20
-30.680499999999999
10
-68.186000000000007
20
-30.611800000000002
10
-68.281099999999995
20
-30.537299999999998
10
-68.371600000000001
20
-30.457100000000001
10
-68.457099999999997
20
-30.371600000000001
10
-68.537300000000002
20
-30.281099999999999
10
-68.611800000000017
20
-30.186
10
-68.680499999999995
20
-30.086500000000001
10
-68.742999999999995
20
-29.9831
10
-68.799199999999999
20
-29.876000000000005
10
-68.848799999999997
20
-29.765800000000002
10
-68.8917
20
-29.652799999999999
10
-68.927599999999998
20
-29.537400000000002
10
-68.956500000000005
20
-29.420000000000002
10
-68.978300000000004
20
-29.301100000000005
10
-68.992900000000006
20
-29.181100000000004
10
-69.000200000000007
20
-29.060400000000005
10
-69.000200000000007
20
-28.939599999999999
10
-68.992900000000006
20
-28.818900000000003
10
-68.978300000000004
20
-28.698899999999998
10
-68.956500000000005
20
-28.580000000000002
10
-68.927599999999998
20
-28.462600000000002
10
-68.8917
20
-28.347200000000004
10
-68.848799999999997
20
-28.234200000000005
10
-68.799199999999999
20
-28.124000000000002
10
-68.742999999999995
20
-28.016900000000003
10
-68.680499999999995
20
-27.913499999999999
10
-68.611800000000017
20
-27.814
10
-68.537300000000002
20
-27.718900000000005
10
-68.457099999999997
20
-27.628400000000003
10
-68.371600000000001
20
-27.542900000000003
10
-68.281099999999995
20
-27.462700000000005
10
-68.186000000000007
20
-27.388200000000005
10
-68.086500000000001
20
-27.319500000000005
10
-67.983099999999993
20
-27.257000000000001
10
-67.876000000000005
20
-27.200800000000001
10
-67.765799999999999
20
-27.151200000000003
10
-67.652800000000013
20
-27.1083
10
-67.537400000000005
20
-27.072400000000002
10
-67.420000000000016
20
-27.043500000000002
10
-67.301100000000005
20
-27.021700000000003
10
-67.181100000000001
20
-27.007100000000005
10
-67.060400000000001
20
-26.9998
10
-66.939600000000013
20
-26.9998
10
-66.818899999999999
20
-27.007100000000005
10
-66.698899999999995
20
-27.021700000000003
10
-66.579999999999998
20
-27.043500000000002
10
-66.462599999999995
20
-27.072400000000002
10
-66.347200000000001
20
-27.1083
10
-66.234200000000001
20
-27.151200000000003
10
-66.123999999999995
20
-27.200800000000001
10
-66.016900000000021
20
-27.257000000000001
10
-65.913499999999999
20
-27.319500000000005
10
-65.813999999999993
20
-27.388200000000005
10
-65.718900000000005
20
-27.462700000000005
10
-65.628399999999999
20
-27.542900000000003
10
-65.542900000000003
20
-27.628400000000003
10
-65.462699999999998
20
-27.718900000000005
10
-65.388199999999998
20
-27.814
10
-65.319500000000005
20
-27.913499999999999
10
-65.257000000000005
20
-28.016900000000003
10
-65.200800000000001
20
-28.124000000000002
10
-65.151200000000003
20
-28.234200000000005
10
-65.1083
20
-28.347200000000004
10
-65.072400000000002
20
-28.462600000000002
10
-65.043499999999995
20
-28.580000000000002
10
-65.021699999999996
20
-28.698899999999998
10
-65.007099999999994
20
-28.818900000000003
0
LWPOLYLINE
5
144
100
AcDbEntity
8
0
100
AcDbPolyline
90
108
70
1
43
0.0
10
-8.9542488838989733
20
-103.29518194426107
42
0.00158725204939729
10
-8.9650937828554955
20
-103.28857687239081
10
-9.01694
20
-103.25700000000001
10
-9.123979999999996
20
-103.20099999999999
10
-9.2342100000000027
20
-103.15100000000001
10
-9.3472299999999997
20
-103.108
10
-9.4626400000000022
20
-103.07200000000002
10
-9.5800000000000018
20
-103.04300000000001
10
-9.6989000000000036
20
-103.02200000000001
10
-9.8188999999999993
20
-103.00700000000001
10
-9.9395599999999984
20
-103
10
-10.060400000000005
20
-103
10
-10.181100000000001
20
-103.00700000000001
10
-10.301100000000005
20
-103.02200000000001
10
-10.419999999999998
20
-103.04300000000001
10
-10.537400000000003
20
-103.07200000000002
10
-10.652799999999996
20
-103.108
10
-10.765799999999999
20
-103.15100000000001
10
-10.876000000000001
20
-103.20099999999999
10
-10.983099999999997
20
-103.25700000000001
10
-11.086499999999999
20
-103.32000000000001
10
-11.185999999999998
20
-103.38800000000001
10
-11.281100000000004
20
-103.46299999999999
10
-11.371599999999997
20
-103.54300000000002
10
-11.457100000000002
20
-103.628
10
-11.537300000000004
20
-103.71899999999999
10
-11.611799999999999
20
-103.81399999999999
10
-11.6805
20
-103.91300000000001
10
-11.743000000000006
20
-104.017
10
-11.799200000000001
20
-104.124
10
-11.848799999999997
20
-104.23400000000001
10
-11.891699999999998
20
-104.34699999999999
10
-11.927599999999998
20
-104.46300000000001
10
-11.956500000000005
20
-104.58
10
-11.978299999999997
20
-104.69900000000001
10
-11.992900000000004
20
-104.81900000000002
10
-12.000200000000003
20
-104.94
10
-12.000200000000003
20
-105.06
10
-11.992900000000004
20
-105.18100000000001
10
-11.978299999999997
20
-105.30100000000002
10
-11.956500000000005
20
-105.42000000000002
10
-11.927599999999998
20
-105.53700000000001
10
-11.891699999999998
20
-105.65300000000001
10
-11.848799999999997
20
-105.76600000000001
10
-11.799200000000001
20
-105.87600000000002
10
-11.743000000000006
20
-105.98300000000002
10
-11.6805
20
-106.087
10
-11.611799999999999
20
-106.18600000000001
10
-11.537300000000004
20
-106.28100000000002
10
-11.457100000000002
20
-106.372
10
-11.371599999999997
20
-106.45699999999999
10
-11.281100000000004
20
-106.53700000000001
10
-11.185999999999998
20
-106.61200000000001
10
-11.086499999999999
20
-106.68000000000001
10
-10.983099999999997
20
-106.74300000000001
10
-10.876000000000001
20
-106.79900000000002
10
-10.765799999999999
20
-106.849
10
-10.652799999999996
20
-106.892
10
-10.537400000000003
20
-106.928
10
-10.419999999999998
20
-106.95700000000001
10
-10.301100000000005
20
-106.97800000000001
10
-10.181100000000001
20
-106.99300000000001
10
-10.060400000000005
20
-107.00000000000001
10
-9.9395599999999984
20
-107.00000000000001
10
-9.8188999999999993
20
-106.99300000000001
10
-9.6989000000000036
20
-106.97800000000001
10
-9.5800000000000018
20
-106.95700000000001
10
-9.4626400000000022
20
-106.928
10
-9.3472299999999997
20
-106.892
10
-9.2342100000000027
20
-106.849
10
-9.123979999999996
20
-106.79900000000002
10
-9.01694
20
-106.74300000000001
10
-8.9650937828503103
20
-106.71142312760607
42
0.0015872520459086865
10
-8.9542488839041408
20
-106.70481805574211
10
-8.9135000000000009
20
-106.68000000000001
10
-8.8140199999999957
20
-106.61200000000001
10
-8.7188599999999994
20
-106.53700000000001
10
-8.6283799999999999
20
-106.45699999999999
10
-8.5429099999999991
20
-106.372
10
-8.4627500000000033
20
-106.28100000000002
10
-8.3882000000000012
20
-106.18600000000001
10
-8.3195300000000039
20
-106.087
10
-8.2570000000000032
20
-105.98300000000002
10
-8.200820000000002
20
-105.87600000000002
10
-8.1512100000000043
20
-105.76600000000001
10
-8.1083499999999997
20
-105.65300000000001
10
-8.0723900000000004
20
-105.53700000000001
10
-8.0434599999999978
20
-105.42000000000002
10
-8.0216699999999985
20
-105.30100000000002
10
-8.0071000000000048
20
-105.18100000000001
10
-7.9997999999999969
20
-105.06
10
-7.9997999999999969
20
-104.94
10
-8.0071000000000048
20
-104.81900000000002
10
-8.0216699999999985
20
-104.69900000000001
10
-8.0434599999999978
20
-104.58
10
-8.0723900000000004
20
-104.46300000000001
10
-8.1083499999999997
20
-104.34699999999999
10
-8.1512100000000043
20
-104.23400000000001
10
-8.200820000000002
20
-104.124
10
-8.2570000000000032
20
-104.017
10
-8.3195300000000039
20
-103.91300000000001
10
-8.3882000000000012
20
-103.81399999999999
10
-8.4627500000000033
20
-103.71899999999999
10
-8.5429099999999991
20
-103.628
10
-8.6283799999999999
20
-103.54300000000002
10
-8.7188599999999994
20
-103.46299999999999
10
-8.8140199999999957
20
-103.38800000000001
10
-8.9135000000000009
20
-103.32000000000001
0
LWPOLYLINE
5
145
100
AcDbEntity
8
0
100
AcDbPolyline
90
104
70
1
43
0.0
10
-103
20
-66.939600000000013
10
-103
20
-67.060400000000001
10
-103.00700000000001
20
-67.181100000000001
10
-103.02200000000001
20
-67.301100000000005
10
-103.04300000000001
20
-67.420000000000016
10
-103.07200000000002
20
-67.537400000000005
10
-103.108
20
-67.652800000000013
10
-103.15100000000001
20
-67.765799999999999
10
-103.20099999999999
20
-67.876000000000005
10
-103.25700000000001
20
-67.983099999999993
10
-103.32000000000001
20
-68.086500000000001
10
-103.38800000000001
20
-68.186000000000007
10
-103.46299999999999
20
-68.281099999999995
10
-103.54300000000002
20
-68.371600000000001
10
-103.628
20
-68.457099999999997
10
-103.71899999999999
20
-68.537300000000002
10
-103.81399999999999
20
-68.611800000000017
10
-103.91300000000001
20
-68.680499999999995
10
-104.017
20
-68.742999999999995
10
-104.124
20
-68.799199999999999
10
-104.23400000000001
20
-68.848799999999997
10
-104.34699999999999
20
-68.8917
10
-104.46300000000001
20
-68.927599999999998
10
-104.58
20
-68.956500000000005
10
-104.69900000000001
20
-68.978300000000004
10
-104.81900000000002
20
-68.992900000000006
10
-104.94
20
-69.000200000000007
10
-105.06
20
-69.000200000000007
10
-105.18100000000001
20
-68.992900000000006
10
-105.30100000000002
20
-68.978300000000004
10
-105.42000000000002
20
-68.956500000000005
10
-105.53700000000001
20
-68.927599999999998
10
-105.65300000000001
20
-68.8917
10
-105.76600000000001
20
-68.848799999999997
10
-105.87600000000002
20
-68.799199999999999
10
-105.98300000000002
20
-68.742999999999995
10
-106.087
20
-68.680499999999995
10
-106.18600000000001
20
-68.611800000000017
10
-106.28100000000002
20
-68.537300000000002
10
-106.372
20
-68.457099999999997
10
-106.45699999999999
20
-68.371600000000001
10
-106.53700000000001
20
-68.281099999999995
10
-106.61200000000001
20
-68.186000000000007
10
-106.68000000000001
20
-68.086500000000001
10
-106.74300000000001
20
-67.983099999999993
10
-106.79900000000002
20
-67.876000000000005
10
-106.849
20
-67.765799999999999
10
-106.892
20
-67.652800000000013
10
-106.928
20
-67.537400000000005
10
-106.95700000000001
20
-67.420000000000016
10
-106.97800000000001
20
-67.301100000000005
10
-106.99300000000001
20
-67.181100000000001
10
-107.00000000000001
20
-67.060400000000001
10
-107.00000000000001
20
-66.939600000000013
10
-106.99300000000001
20
-66.818899999999999
10
-106.97800000000001
20
-66.698899999999995
10
-106.95700000000001
20
-66.579999999999998
10
-106.928
20
-66.462599999999995
10
-106.892
20
-66.347200000000001
10
-106.849
20
-66.234200000000001
10
-106.79900000000002
20
-66.123999999999995
10
-106.74300000000001
20
-66.016900000000021
10
-106.68000000000001
20
-65.913499999999999
10
-106.61200000000001
20
-65.813999999999993
10
-106.53700000000001
20
-65.718900000000005
10
-106.45699999999999
20
-65.628399999999999
10
-106.372
20
-65.542900000000003
10
-106.28100000000002
20
-65.462699999999998
10
-106.18600000000001
20
-65.388199999999998
10
-106.087
20
-65.319500000000005
10
-105.98300000000002
20
-65.257000000000005
10
-105.87600000000002
20
-65.200800000000001
10
-105.76600000000001
20
-65.151200000000003
10
-105.65300000000001
20
-65.1083
10
-105.53700000000001
20
-65.072400000000002
10
-105.42000000000002
20
-65.043499999999995
10
-105.30100000000002
20
-65.021699999999996
10
-105.18100000000001
20
-65.007099999999994
10
-105.06
20
-64.999799999999993
10
-104.94
20
-64.999799999999993
10
-104.81900000000002
20
-65.007099999999994
10
-104.69900000000001
20
-65.021699999999996
10
-104.58
20
-65.043499999999995
10
-104.46300000000001
20
-65.072400000000002
10
-104.34699999999999
20
-65.1083
10
-104.23400000000001
20
-65.151200000000003
10
-104.124
20
-65.200800000000001
10
-104.017
20
-65.257000000000005
10
-103.91300000000001
20
-65.319500000000005
10
-103.81399999999999
20
-65.388199999999998
10
-103.71899999999999
20
-65.462699999999998
10
-103.628
20
-65.542900000000003
10
-103.54300000000002
20
-65.628399999999999
10
-103.46299999999999
20
-65.718900000000005
10
-103.38800000000001
20
-65.813999999999993
10
-103.32000000000001
20
-65.913499999999999
10
-103.25700000000001
20
-66.016900000000021
10
-103.20099999999999
20
-66.123999999999995
10
-103.15100000000001
20
-66.234200000000001
10
-103.108
20
-66.347200000000001
10
-103.07200000000002
20
-66.462599999999995
10
-103.04300000000001
20
-66.579999999999998
10
-103.02200000000001
20
-66.698899999999995
10
-103.00700000000001
20
-66.818899999999999
0
LWPOLYLINE
5
146
100
AcDbEntity
8
0
100
AcDbPolyline
90
104
70
1
43
0.0
10
-103
20
-47.939599999999999
10
-103
20
-48.060400000000001
10
-103.00700000000001
20
-48.181100000000008
10
-103.02200000000001
20
-48.301100000000005
10
-103.04300000000001
20
-48.420000000000002
10
-103.07200000000002
20
-48.537400000000005
10
-103.108
20
-48.652799999999999
10
-103.15100000000001
20
-48.765800000000006
10
-103.20099999999999
20
-48.875999999999998
10
-103.25700000000001
20
-48.983100000000007
10
-103.32000000000001
20
-49.086500000000008
10
-103.38800000000001
20
-49.186000000000007
10
-103.46299999999999
20
-49.281100000000002
10
-103.54300000000002
20
-49.371600000000001
10
-103.628
20
-49.457099999999997
10
-103.71899999999999
20
-49.537300000000002
10
-103.81399999999999
20
-49.611800000000002
10
-103.91300000000001
20
-49.680500000000009
10
-104.017
20
-49.743000000000002
10
-104.124
20
-49.799199999999999
10
-104.23400000000001
20
-49.848800000000004
10
-104.34699999999999
20
-49.891700000000007
10
-104.46300000000001
20
-49.927600000000005
10
-104.58
20
-49.956500000000005
10
-104.69900000000001
20
-49.978300000000004
10
-104.81900000000002
20
-49.992900000000006
10
-104.94
20
-50.0002
10
-105.06
20
-50.0002
10
-105.18100000000001
20
-49.992900000000006
10
-105.30100000000002
20
-49.978300000000004
10
-105.42000000000002
20
-49.956500000000005
10
-105.53700000000001
20
-49.927600000000005
10
-105.65300000000001
20
-49.891700000000007
10
-105.76600000000001
20
-49.848800000000004
10
-105.87600000000002
20
-49.799199999999999
10
-105.98300000000002
20
-49.743000000000002
10
-106.087
20
-49.680500000000009
10
-106.18600000000001
20
-49.611800000000002
10
-106.28100000000002
20
-49.537300000000002
10
-106.372
20
-49.457099999999997
10
-106.45699999999999
20
-49.371600000000001
10
-106.53700000000001
20
-49.281100000000002
10
-106.61200000000001
20
-49.186000000000007
10
-106.68000000000001
20
-49.086500000000008
10
-106.74300000000001
20
-48.983100000000007
10
-106.79900000000002
20
-48.875999999999998
10
-106.849
20
-48.765800000000006
10
-106.892
20
-48.652799999999999
10
-106.928
20
-48.537400000000005
10
-106.95700000000001
20
-48.420000000000002
10
-106.97800000000001
20
-48.301100000000005
10
-106.99300000000001
20
-48.181100000000008
10
-107.00000000000001
20
-48.060400000000001
10
-107.00000000000001
20
-47.939599999999999
10
-106.99300000000001
20
-47.818899999999999
10
-106.97800000000001
20
-47.698900000000002
10
-106.95700000000001
20
-47.579999999999998
10
-106.928
20
-47.462600000000002
10
-106.892
20
-47.347200000000001
10
-106.849
20
-47.234200000000001
10
-106.79900000000002
20
-47.124000000000009
10
-106.74300000000001
20
-47.0169
10
-106.68000000000001
20
-46.913499999999999
10
-106.61200000000001
20
-46.814
10
-106.53700000000001
20
-46.718900000000005
10
-106.45699999999999
20
-46.628399999999999
10
-106.372
20
-46.542900000000003
10
-106.28100000000002
20
-46.462700000000005
10
-106.18600000000001
20
-46.388199999999998
10
-106.087
20
-46.319499999999998
10
-105.98300000000002
20
-46.257000000000005
10
-105.87600000000002
20
-46.200800000000008
10
-105.76600000000001
20
-46.151200000000003
10
-105.65300000000001
20
-46.1083
10
-105.53700000000001
20
-46.072400000000002
10
-105.42000000000002
20
-46.043500000000002
10
-105.30100000000002
20
-46.021700000000003
10
-105.18100000000001
20
-46.007100000000001
10
-105.06
20
-45.999800000000008
10
-104.94
20
-45.999800000000008
10
-104.81900000000002
20
-46.007100000000001
10
-104.69900000000001
20
-46.021700000000003
10
-104.58
20
-46.043500000000002
10
-104.46300000000001
20
-46.072400000000002
10
-104.34699999999999
20
-46.1083
10
-104.23400000000001
20
-46.151200000000003
10
-104.124
20
-46.200800000000008
10
-104.017
20
-46.257000000000005
10
-103.91300000000001
20
-46.319499999999998
10
-103.81399999999999
20
-46.388199999999998
10
-103.71899999999999
20
-46.462700000000005
10
-103.628
20
-46.542900000000003
10
-103.54300000000002
20
-46.628399999999999
10
-103.46299999999999
20
-46.718900000000005
10
-103.38800000000001
20
-46.814
10
-103.32000000000001
20
-46.913499999999999
10
-103.25700000000001
20
-47.0169
10
-103.20099999999999
20
-47.124000000000009
10
-103.15100000000001
20
-47.234200000000001
10
-103.108
20
-47.347200000000001
10
-103.07200000000002
20
-47.462600000000002
10
-103.04300000000001
20
-47.579999999999998
10
-103.02200000000001
20
-47.698900000000002
10
-103.00700000000001
20
-47.818899999999999
0
LWPOLYLINE
5
147
100
AcDbEntity
8
0
100
AcDbPolyline
90
104
70
1
43
0.0
10
-103
20
-85.939600000000013
10
-103
20
-86.060400000000001
10
-103.00700000000001
20
-86.181100000000001
10
-103.02200000000001
20
-86.301100000000005
10
-103.04300000000001
20
-86.420000000000016
10
-103.07200000000002
20
-86.537400000000005
10
-103.108
20
-86.652800000000013
10
-103.15100000000001
20
-86.765799999999999
10
-103.20099999999999
20
-86.876000000000019
10
-103.25700000000001
20
-86.983099999999993
10
-103.32000000000001
20
-87.086500000000001
10
-103.38800000000001
20
-87.186000000000007
10
-103.46299999999999
20
-87.281099999999995
10
-103.54300000000002
20
-87.371600000000015
10
-103.628
20
-87.457100000000011
10
-103.71899999999999
20
-87.537300000000016
10
-103.81399999999999
20
-87.611800000000017
10
-103.91300000000001
20
-87.680500000000009
10
-104.017
20
-87.742999999999995
10
-104.124
20
-87.799200000000013
10
-104.23400000000001
20
-87.848799999999997
10
-104.34699999999999
20
-87.8917
10
-104.46300000000001
20
-87.927599999999998
10
-104.58
20
-87.956500000000005
10
-104.69900000000001
20
-87.978300000000019
10
-104.81900000000002
20
-87.992900000000006
10
-104.94
20
-88.000200000000021
10
-105.06
20
-88.000200000000021
10
-105.18100000000001
20
-87.992900000000006
10
-105.30100000000002
20
-87.978300000000019
10
-105.42000000000002
20
-87.956500000000005
10
-105.53700000000001
20
-87.927599999999998
10
-105.65300000000001
20
-87.8917
10
-105.76600000000001
20
-87.848799999999997
10
-105.87600000000002
20
-87.799200000000013
10
-105.98300000000002
20
-87.742999999999995
10
-106.087
20
-87.680500000000009
10
-106.18600000000001
20
-87.611800000000017
10
-106.28100000000002
20
-87.537300000000016
10
-106.372
20
-87.457100000000011
10
-106.45699999999999
20
-87.371600000000015
10
-106.53700000000001
20
-87.281099999999995
10
-106.61200000000001
20
-87.186000000000007
10
-106.68000000000001
20
-87.086500000000001
10
-106.74300000000001
20
-86.983099999999993
10
-106.79900000000002
20
-86.876000000000019
10
-106.849
20
-86.765799999999999
10
-106.892
20
-86.652800000000013
10
-106.928
20
-86.537400000000005
10
-106.95700000000001
20
-86.420000000000016
10
-106.97800000000001
20
-86.301100000000005
10
-106.99300000000001
20
-86.181100000000001
10
-107.00000000000001
20
-86.060400000000001
10
-107.00000000000001
20
-85.939600000000013
10
-106.99300000000001
20
-85.818899999999999
10
-106.97800000000001
20
-85.698899999999995
10
-106.95700000000001
20
-85.579999999999998
10
-106.928
20
-85.462600000000009
10
-106.892
20
-85.347200000000001
10
-106.849
20
-85.234200000000001
10
-106.79900000000002
20
-85.123999999999995
10
-106.74300000000001
20
-85.016900000000021
10
-106.68000000000001
20
-84.913499999999999
10
-106.61200000000001
20
-84.813999999999993
10
-106.53700000000001
20
-84.718900000000005
10
-106.45699999999999
20
-84.628399999999999
10
-106.372
20
-84.542900000000003
10
-106.28100000000002
20
-84.462699999999998
10
-106.18600000000001
20
-84.388199999999998
10
-106.087
20
-84.319500000000005
10
-105.98300000000002
20
-84.257000000000005
10
-105.87600000000002
20
-84.200800000000001
10
-105.76600000000001
20
-84.151200000000003
10
-105.65300000000001
20
-84.108300000000014
10
-105.53700000000001
20
-84.072400000000002
10
-105.42000000000002
20
-84.043499999999995
10
-105.30100000000002
20
-84.021699999999996
10
-105.18100000000001
20
-84.007100000000008
10
-105.06
20
-83.999799999999993
10
-104.94
20
-83.999799999999993
10
-104.81900000000002
20
-84.007100000000008
10
-104.69900000000001
20
-84.021699999999996
10
-104.58
20
-84.043499999999995
10
-104.46300000000001
20
-84.072400000000002
10
-104.34699999999999
20
-84.108300000000014
10
-104.23400000000001
20
-84.151200000000003
10
-104.124
20
-84.200800000000001
10
-104.017
20
-84.257000000000005
10
-103.91300000000001
20
-84.319500000000005
10
-103.81399999999999
20
-84.388199999999998
10
-103.71899999999999
20
-84.462699999999998
10
-103.628
20
-84.542900000000003
10
-103.54300000000002
20
-84.628399999999999
10
-103.46299999999999
20
-84.718900000000005
10
-103.38800000000001
20
-84.813999999999993
10
-103.32000000000001
20
-84.913499999999999
10
-103.25700000000001
20
-85.016900000000021
10
-103.20099999999999
20
-85.123999999999995
10
-103.15100000000001
20
-85.234200000000001
10
-103.108
20
-85.347200000000001
10
-103.07200000000002
20
-85.462600000000009
10
-103.04300000000001
20
-85.579999999999998
10
-103.02200000000001
20
-85.698899999999995
10
-103.00700000000001
20
-85.818899999999999
0
LWPOLYLINE
5
148
100
AcDbEntity
8
0
100
AcDbPolyline
90
104
70
1
43
0.0
10
-103
20
-28.939599999999999
10
-103
20
-29.060400000000005
10
-103.00700000000001
20
-29.181100000000004
10
-103.02200000000001
20
-29.301100000000005
10
-103.04300000000001
20
-29.420000000000002
10
-103.07200000000002
20
-29.537400000000002
10
-103.108
20
-29.652799999999999
10
-103.15100000000001
20
-29.765800000000002
10
-103.20099999999999
20
-29.876000000000005
10
-103.25700000000001
20
-29.9831
10
-103.32000000000001
20
-30.086500000000001
10
-103.38800000000001
20
-30.186
10
-103.46299999999999
20
-30.281099999999999
10
-103.54300000000002
20
-30.371600000000001
10
-103.628
20
-30.457100000000001
10
-103.71899999999999
20
-30.537299999999998
10
-103.81399999999999
20
-30.611800000000002
10
-103.91300000000001
20
-30.680499999999999
10
-104.017
20
-30.743000000000002
10
-104.124
20
-30.799199999999999
10
-104.23400000000001
20
-30.848800000000001
10
-104.34699999999999
20
-30.8917
10
-104.46300000000001
20
-30.927600000000002
10
-104.58
20
-30.956499999999998
10
-104.69900000000001
20
-30.978300000000001
10
-104.81900000000002
20
-30.992899999999999
10
-104.94
20
-31.000200000000003
10
-105.06
20
-31.000200000000003
10
-105.18100000000001
20
-30.992899999999999
10
-105.30100000000002
20
-30.978300000000001
10
-105.42000000000002
20
-30.956499999999998
10
-105.53700000000001
20
-30.927600000000002
10
-105.65300000000001
20
-30.8917
10
-105.76600000000001
20
-30.848800000000001
10
-105.87600000000002
20
-30.799199999999999
10
-105.98300000000002
20
-30.743000000000002
10
-106.087
20
-30.680499999999999
10
-106.18600000000001
20
-30.611800000000002
10
-106.28100000000002
20
-30.537299999999998
10
-106.372
20
-30.457100000000001
10
-106.45699999999999
20
-30.371600000000001
10
-106.53700000000001
20
-30.281099999999999
10
-106.61200000000001
20
-30.186
10
-106.68000000000001
20
-30.086500000000001
10
-106.74300000000001
20
-29.9831
10
-106.79900000000002
20
-29.876000000000005
10
-106.849
20
-29.765800000000002
10
-106.892
20
-29.652799999999999
10
-106.928
20
-29.537400000000002
10
-106.95700000000001
20
-29.420000000000002
10
-106.97800000000001
20
-29.301100000000005
10
-106.99300000000001
20
-29.181100000000004
10
-107.00000000000001
20
-29.060400000000005
10
-107.00000000000001
20
-28.939599999999999
10
-106.99300000000001
20
-28.818900000000003
10
-106.97800000000001
20
-28.698899999999998
10
-106.95700000000001
20
-28.580000000000002
10
-106.928
20
-28.462600000000002
10
-106.892
20
-28.347200000000004
10
-106.849
20
-28.234200000000005
10
-106.79900000000002
20
-28.124000000000002
10
-106.74300000000001
20
-28.016900000000003
10
-106.68000000000001
20
-27.913499999999999
10
-106.61200000000001
20
-27.814
10
-106.53700000000001
20
-27.718900000000005
10
-106.45699999999999
20
-27.628400000000003
10
-106.372
20
-27.542900000000003
10
-106.28100000000002
20
-27.462700000000005
10
-106.18600000000001
20
-27.388200000000005
10
-106.087
20
-27.319500000000005
10
-105.98300000000002
20
-27.257000000000001
10
-105.87600000000002
20
-27.200800000000001
10
-105.76600000000001
20
-27.151200000000003
10
-105.65300000000001
20
-27.1083
10
-105.53700000000001
20
-27.072400000000002
10
-105.42000000000002
20
-27.043500000000002
10
-105.30100000000002
20
-27.021700000000003
10
-105.18100000000001
20
-27.007100000000005
10
-105.06
20
-26.9998
10
-104.94
20
-26.9998
10
-104.81900000000002
20
-27.007100000000005
10
-104.69900000000001
20
-27.021700000000003
10
-104.58
20
-27.043500000000002
10
-104.46300000000001
20
-27.072400000000002
10
-104.34699999999999
20
-27.1083
10
-104.23400000000001
20
-27.151200000000003
10
-104.124
20
-27.200800000000001
10
-104.017
20
-27.257000000000001
10
-103.91300000000001
20
-27.319500000000005
10
-103.81399999999999
20
-27.388200000000005
10
-103.71899999999999
20
-27.462700000000005
10
-103.628
20
-27.542900000000003
10
-103.54300000000002
20
-27.628400000000003
10
-103.46299999999999
20
-27.718900000000005
10
-103.38800000000001
20
-27.814
10
-103.32000000000001
20
-27.913499999999999
10
-103.25700000000001
20
-28.016900000000003
10
-103.20099999999999
20
-28.124000000000002
10
-103.15100000000001
20
-28.234200000000005
10
-103.108
20
-28.347200000000004
10
-103.07200000000002
20
-28.462600000000002
10
-103.04300000000001
20
-28.580000000000002
10
-103.02200000000001
20
-28.698899999999998
10
-103.00700000000001
20
-28.818900000000003
0
CIRCLE
5
149
100
AcDbEntity
8
0
100
AcDbCircle
10
-4.9199999999999999
20
-80.5
30
0
40
0.55880000000000041
210
0
220
-0
230
1
0
CIRCLE
5
150
100
AcDbEntity
8
0
100
AcDbCircle
10
-15.08
20
-80.5
30
0
40
0.5587999999999993
210
0
220
-0
230
1
0
CIRCLE
5
151
100
AcDbEntity
8
0
100
AcDbCircle
10
-15.08
20
-61.5
30
0
40
0.5587999999999993
210
0
220
-0
230
1
0
CIRCLE
5
152
100
AcDbEntity
8
0
100
AcDbCircle
10
-4.9199999999999999
20
-61.5
30
0
40
0.55880000000000041
210
0
220
-0
230
1
0
CIRCLE
5
153
100
AcDbEntity
8
0
100
AcDbCircle
10
-80.920000000000002
20
-4.5
30
0
40
0.55880000000000152
210
0
220
-0
230
1
0
CIRCLE
5
154
100
AcDbEntity
8
0
100
AcDbCircle
10
-91.080000000000013
20
-4.5
30
0
40
0.55880000000000152
210
0
220
-0
230
1
0
CIRCLE
5
155
100
AcDbEntity
8
0
100
AcDbCircle
10
-15.08
20
-42.5
30
0
40
0.5587999999999993
210
0
220
-0
230
1
0
CIRCLE
5
156
100
AcDbEntity
8
0
100
AcDbCircle
10
-4.9199999999999999
20
-42.5
30
0
40
0.55880000000000041
210
0
220
-0
230
1
0
CIRCLE
5
157
100
AcDbEntity
8
0
100
AcDbCircle
10
-110.08000000000001
20
-42.5
30
0
40
0.55880000000000152
210
0
220
-0
230
1
0
CIRCLE
5
158
100
AcDbEntity
8
0
100
AcDbCircle
10
-99.920000000000016
20
-42.5
30
0
40
0.55880000000000152
210
0
220
-0
230
1
0
CIRCLE
5
159
100
AcDbEntity
8
0
100
AcDbCircle
10
-110.08000000000001
20
-99.500000000000014
30
0
40
0.55880000000000152
210
0
220
-0
230
1
0
CIRCLE
5
160
100
AcDbEntity
8
0
100
AcDbCircle
10
-110.08000000000001
20
-80.5
30
0
40
0.55880000000000152
210
0
220
-0
230
1
0
CIRCLE
5
161
100
AcDbEntity
8
0
100
AcDbCircle
10
-69.540000000000006
20
-34.079999999999998
30
0
40
0.75000000000000178
210
0
220
-0
230
1
0
CIRCLE
5
162
100
AcDbEntity
8
0
100
AcDbCircle
10
-99.920000000000016
20
-80.5
30
0
40
0.55880000000000152
210
0
220
-0
230
1
0
CIRCLE
5
163
100
AcDbEntity
8
0
100
AcDbCircle
10
-91.080000000000013
20
-10
30
0
40
0.85720000000000229
210
0
220
-0
230
1
0
CIRCLE
5
164
100
AcDbEntity
8
0
100
AcDbCircle
10
-99.920000000000016
20
-61.5
30
0
40
0.55880000000000152
210
0
220
-0
230
1
0
CIRCLE
5
165
100
AcDbEntity
8
0
100
AcDbCircle
10
-63.189999999999998
20
-31.539999999999999
30
0
40
0.75000000000000178
210
0
220
-0
230
1
0
CIRCLE
5
166
100
AcDbEntity
8
0
100
AcDbCircle
10
-99.920000000000016
20
-99.500000000000014
30
0
40
0.55880000000000152
210
0
220
-0
230
1
0
CIRCLE
5
167
100
AcDbEntity
8
0
100
AcDbCircle
10
-13.810000000000002
20
-69.540000000000006
30
0
40
0.74999999999999956
210
0
220
-0
230
1
0
CIRCLE
5
168
100
AcDbEntity
8
0
100
AcDbCircle
10
-7.46
20
-72.079999999999998
30
0
40
0.74999999999999956
210
0
220
-0
230
1
0
CIRCLE
5
169
100
AcDbEntity
8
0
100
AcDbCircle
10
-7.46
20
-91.080000000000013
30
0
40
0.74999999999999956
210
0
220
-0
230
1
0
CIRCLE
5
170
100
AcDbEntity
8
0
100
AcDbCircle
10
-13.810000000000002
20
-88.540000000000006
30
0
40
0.74999999999999956
210
0
220
-0
230
1
0
CIRCLE
5
171
100
AcDbEntity
8
0
100
AcDbCircle
10
-13.810000000000002
20
-50.540000000000006
30
0
40
0.74999999999999956
210
0
220
-0
230
1
0
CIRCLE
5
172
100
AcDbEntity
8
0
100
AcDbCircle
10
-7.46
20
-53.079999999999998
30
0
40
0.74999999999999956
210
0
220
-0
230
1
0
CIRCLE
5
173
100
AcDbEntity
8
0
100
AcDbCircle
10
-83.460000000000008
20
-15.08
30
0
40
0.74999999999999289
210
0
220
-0
230
1
0
CIRCLE
5
174
100
AcDbEntity
8
0
100
AcDbCircle
10
-89.810000000000002
20
-12.539999999999999
30
0
40
0.74999999999999289
210
0
220
-0
230
1
0
CIRCLE
5
175
100
AcDbEntity
8
0
100
AcDbCircle
10
-13.810000000000002
20
-107.54000000000002
30
0
40
0.74999999999999956
210
0
220
-0
230
1
0
CIRCLE
5
176
100
AcDbEntity
8
0
100
AcDbCircle
10
-7.46
20
-110.08000000000001
30
0
40
0.74999999999999956
210
0
220
-0
230
1
0
CIRCLE
5
177
100
AcDbEntity
8
0
100
AcDbCircle
10
-72.079999999999998
20
-29.000000000000004
30
0
40
0.85720000000000229
210
0
220
-0
230
1
0
CIRCLE
5
178
100
AcDbEntity
8
0
100
AcDbCircle
10
-51.810000000000009
20
-31.539999999999999
30
0
40
0.75000000000000178
210
0
220
-0
230
1
0
CIRCLE
5
179
100
AcDbEntity
8
0
100
AcDbCircle
10
-45.460000000000001
20
-34.079999999999998
30
0
40
0.75000000000000178
210
0
220
-0
230
1
0
CIRCLE
5
180
100
AcDbEntity
8
0
100
AcDbCircle
10
-61.920000000000002
20
-29.000000000000004
30
0
40
0.85720000000000229
210
0
220
-0
230
1
0
CIRCLE
5
181
100
AcDbEntity
8
0
100
AcDbCircle
10
-108.81
20
-31.539999999999999
30
0
40
0.74999999999999289
210
0
220
-0
230
1
0
CIRCLE
5
182
100
AcDbEntity
8
0
100
AcDbCircle
10
-102.46000000000001
20
-34.079999999999998
30
0
40
0.74999999999999289
210
0
220
-0
230
1
0
CIRCLE
5
183
100
AcDbEntity
8
0
100
AcDbCircle
10
-102.46000000000001
20
-72.079999999999998
30
0
40
0.74999999999999289
210
0
220
-0
230
1
0
CIRCLE
5
184
100
AcDbEntity
8
0
100
AcDbCircle
10
-108.81
20
-69.540000000000006
30
0
40
0.74999999999999289
210
0
220
-0
230
1
0
CIRCLE
5
185
100
AcDbEntity
8
0
100
AcDbCircle
10
-108.81
20
-50.540000000000006
30
0
40
0.74999999999999289
210
0
220
-0
230
1
0
CIRCLE
5
186
100
AcDbEntity
8
0
100
AcDbCircle
10
-102.46000000000001
20
-53.079999999999998
30
0
40
0.74999999999999289
210
0
220
-0
230
1
0
CIRCLE
5
187
100
AcDbEntity
8
0
100
AcDbCircle
10
-110.08000000000001
20
-105
30
0
40
0.85720000000000229
210
0
220
-0
230
1
0
CIRCLE
5
188
100
AcDbEntity
8
0
100
AcDbCircle
10
-99.920000000000016
20
-105
30
0
40
0.85720000000000229
210
0
220
-0
230
1
0
CIRCLE
5
189
100
AcDbEntity
8
0
100
AcDbCircle
10
-32.810000000000002
20
-50.540000000000006
30
0
40
0.75000000000000178
210
0
220
-0
230
1
0
CIRCLE
5
190
100
AcDbEntity
8
0
100
AcDbCircle
10
-26.460000000000004
20
-53.079999999999998
30
0
40
0.75000000000000178
210
0
220
-0
230
1
0
CIRCLE
5
191
100
AcDbEntity
8
0
100
AcDbCircle
10
-102.46000000000001
20
-15.08
30
0
40
0.74999999999999289
210
0
220
-0
230
1
0
CIRCLE
5
192
100
AcDbEntity
8
0
100
AcDbCircle
10
-108.81
20
-12.539999999999999
30
0
40
0.74999999999999289
210
0
220
-0
230
1
0
CIRCLE
5
193
100
AcDbEntity
8
0
100
AcDbCircle
10
-101.19
20
-12.539999999999999
30
0
40
0.74999999999999289
210
0
220
-0
230
1
0
CIRCLE
5
194
100
AcDbEntity
8
0
100
AcDbCircle
10
-107.54000000000002
20
-15.08
30
0
40
0.74999999999999289
210
0
220
-0
230
1
0
CIRCLE
5
195
100
AcDbEntity
8
0
100
AcDbCircle
10
-110.08000000000001
20
-10
30
0
40
0.85720000000000229
210
0
220
-0
230
1
0
CIRCLE
5
196
100
AcDbEntity
8
0
100
AcDbCircle
10
-31.539999999999999
20
-53.079999999999998
30
0
40
0.75000000000000178
210
0
220
-0
230
1
0
CIRCLE
5
197
100
AcDbEntity
8
0
100
AcDbCircle
10
-15.08
20
-105
30
0
40
0.85720000000000018
210
0
220
-0
230
1
0
CIRCLE
5
198
100
AcDbEntity
8
0
100
AcDbCircle
10
-25.190000000000001
20
-50.540000000000006
30
0
40
0.75000000000000178
210
0
220
-0
230
1
0
CIRCLE
5
199
100
AcDbEntity
8
0
100
AcDbCircle
10
-4.9199999999999999
20
-105
30
0
40
0.85720000000000018
210
0
220
-0
230
1
0
CIRCLE
5
200
100
AcDbEntity
8
0
100
AcDbCircle
10
-4.9199999999999999
20
-86
30
0
40
0.85720000000000018
210
0
220
-0
230
1
0
CIRCLE
5
201
100
AcDbEntity
8
0
100
AcDbCircle
10
-99.920000000000016
20
-29.000000000000004
30
0
40
0.85720000000000229
210
0
220
-0
230
1
0
CIRCLE
5
202
100
AcDbEntity
8
0
100
AcDbCircle
10
-15.08
20
-86
30
0
40
0.85720000000000018
210
0
220
-0
230
1
0
CIRCLE
5
203
100
AcDbEntity
8
0
100
AcDbCircle
10
-99.920000000000016
20
-10
30
0
40
0.85720000000000229
210
0
220
-0
230
1
0
CIRCLE
5
204
100
AcDbEntity
8
0
100
AcDbCircle
10
-99.920000000000016
20
-23.5
30
0
40
0.55880000000000152
210
0
220
-0
230
1
0
CIRCLE
5
205
100
AcDbEntity
8
0
100
AcDbCircle
10
-110.08000000000001
20
-23.5
30
0
40
0.55880000000000152
210
0
220
-0
230
1
0
CIRCLE
5
206
100
AcDbEntity
8
0
100
AcDbCircle
10
-99.920000000000016
20
-48.000000000000007
30
0
40
0.85720000000000229
210
0
220
-0
230
1
0
CIRCLE
5
207
100
AcDbEntity
8
0
100
AcDbCircle
10
-110.08000000000001
20
-29.000000000000004
30
0
40
0.85720000000000229
210
0
220
-0
230
1
0
CIRCLE
5
208
100
AcDbEntity
8
0
100
AcDbCircle
10
-110.08000000000001
20
-48.000000000000007
30
0
40
0.85720000000000229
210
0
220
-0
230
1
0
CIRCLE
5
209
100
AcDbEntity
8
0
100
AcDbCircle
10
-110.08000000000001
20
-86
30
0
40
0.85720000000000229
210
0
220
-0
230
1
0
CIRCLE
5
210
100
AcDbEntity
8
0
100
AcDbCircle
10
-53.079999999999998
20
-23.5
30
0
40
0.55880000000000152
210
0
220
-0
230
1
0
CIRCLE
5
211
100
AcDbEntity
8
0
100
AcDbCircle
10
-42.920000000000009
20
-23.5
30
0
40
0.55880000000000152
210
0
220
-0
230
1
0
CIRCLE
5
212
100
AcDbEntity
8
0
100
AcDbCircle
10
-99.920000000000016
20
-86
30
0
40
0.85720000000000229
210
0
220
-0
230
1
0
CIRCLE
5
213
100
AcDbEntity
8
0
100
AcDbCircle
10
-99.920000000000016
20
-4.5
30
0
40
0.55880000000000152
210
0
220
-0
230
1
0
CIRCLE
5
214
100
AcDbEntity
8
0
100
AcDbCircle
10
-110.08000000000001
20
-4.5
30
0
40
0.55880000000000152
210
0
220
-0
230
1
0
CIRCLE
5
215
100
AcDbEntity
8
0
100
AcDbCircle
10
-80.920000000000002
20
-10
30
0
40
0.85720000000000229
210
0
220
-0
230
1
0
CIRCLE
5
216
100
AcDbEntity
8
0
100
AcDbCircle
10
-15.08
20
-99.500000000000014
30
0
40
0.5587999999999993
210
0
220
-0
230
1
0
CIRCLE
5
217
100
AcDbEntity
8
0
100
AcDbCircle
10
-4.9199999999999999
20
-99.500000000000014
30
0
40
0.55880000000000041
210
0
220
-0
230
1
0
CIRCLE
5
218
100
AcDbEntity
8
0
100
AcDbCircle
10
-23.920000000000002
20
-42.5
30
0
40
0.55880000000000152
210
0
220
-0
230
1
0
CIRCLE
5
219
100
AcDbEntity
8
0
100
AcDbCircle
10
-34.079999999999998
20
-42.5
30
0
40
0.55880000000000152
210
0
220
-0
230
1
0
CIRCLE
5
220
100
AcDbEntity
8
0
100
AcDbCircle
10
-15.08
20
-48.000000000000007
30
0
40
0.85720000000000018
210
0
220
-0
230
1
0
CIRCLE
5
221
100
AcDbEntity
8
0
100
AcDbCircle
10
-61.920000000000002
20
-23.5
30
0
40
0.55880000000000152
210
0
220
-0
230
1
0
CIRCLE
5
222
100
AcDbEntity
8
0
100
AcDbCircle
10
-72.079999999999998
20
-23.5
30
0
40
0.55880000000000152
210
0
220
-0
230
1
0
CIRCLE
5
223
100
AcDbEntity
8
0
100
AcDbCircle
10
-15.08
20
-67
30
0
40
0.85720000000000018
210
0
220
-0
230
1
0
CIRCLE
5
224
100
AcDbEntity
8
0
100
AcDbCircle
10
-42.920000000000009
20
-29.000000000000004
30
0
40
0.85720000000000229
210
0
220
-0
230
1
0
CIRCLE
5
225
100
AcDbEntity
8
0
100
AcDbCircle
10
-44.189999999999998
20
-31.539999999999999
30
0
40
0.75000000000000178
210
0
220
-0
230
1
0
CIRCLE
5
226
100
AcDbEntity
8
0
100
AcDbCircle
10
-110.08000000000001
20
-61.5
30
0
40
0.55880000000000152
210
0
220
-0
230
1
0
CIRCLE
5
227
100
AcDbEntity
8
0
100
AcDbCircle
10
-4.9199999999999999
20
-48.000000000000007
30
0
40
0.85720000000000018
210
0
220
-0
230
1
0
CIRCLE
5
228
100
AcDbEntity
8
0
100
AcDbCircle
10
-50.540000000000006
20
-34.079999999999998
30
0
40
0.75000000000000178
210
0
220
-0
230
1
0
CIRCLE
5
229
100
AcDbEntity
8
0
100
AcDbCircle
10
-99.920000000000016
20
-67
30
0
40
0.85720000000000229
210
0
220
-0
230
1
0
CIRCLE
5
230
100
AcDbEntity
8
0
100
AcDbCircle
10
-53.079999999999998
20
-29.000000000000004
30
0
40
0.85720000000000229
210
0
220
-0
230
1
0
CIRCLE
5
231
100
AcDbEntity
8
0
100
AcDbCircle
10
-110.08000000000001
20
-67
30
0
40
0.85720000000000229
210
0
220
-0
230
1
0
CIRCLE
5
232
100
AcDbEntity
8
0
100
AcDbCircle
10
-107.54000000000002
20
-91.080000000000013
30
0
40
0.74999999999999289
210
0
220
-0
230
1
0
CIRCLE
5
233
100
AcDbEntity
8
0
100
AcDbCircle
10
-101.19
20
-69.540000000000006
30
0
40
0.74999999999999289
210
0
220
-0
230
1
0
CIRCLE
5
234
100
AcDbEntity
8
0
100
AcDbCircle
10
-6.1900000000000013
20
-50.540000000000006
30
0
40
0.75000000000000067
210
0
220
-0
230
1
0
CIRCLE
5
235
100
AcDbEntity
8
0
100
AcDbCircle
10
-12.539999999999999
20
-53.079999999999998
30
0
40
0.74999999999999956
210
0
220
-0
230
1
0
CIRCLE
5
236
100
AcDbEntity
8
0
100
AcDbCircle
10
-12.539999999999999
20
-72.079999999999998
30
0
40
0.74999999999999956
210
0
220
-0
230
1
0
CIRCLE
5
237
100
AcDbEntity
8
0
100
AcDbCircle
10
-34.079999999999998
20
-48.000000000000007
30
0
40
0.85719999999999796
210
0
220
-0
230
1
0
CIRCLE
5
238
100
AcDbEntity
8
0
100
AcDbCircle
10
-6.1900000000000013
20
-69.540000000000006
30
0
40
0.75000000000000067
210
0
220
-0
230
1
0
CIRCLE
5
239
100
AcDbEntity
8
0
100
AcDbCircle
10
-23.920000000000002
20
-48.000000000000007
30
0
40
0.85719999999999796
210
0
220
-0
230
1
0
CIRCLE
5
240
100
AcDbEntity
8
0
100
AcDbCircle
10
-107.54000000000002
20
-72.079999999999998
30
0
40
0.74999999999999289
210
0
220
-0
230
1
0
CIRCLE
5
241
100
AcDbEntity
8
0
100
AcDbCircle
10
-4.9199999999999999
20
-67
30
0
40
0.85720000000000018
210
0
220
-0
230
1
0
CIRCLE
5
242
100
AcDbEntity
8
0
100
AcDbCircle
10
-101.19
20
-31.539999999999999
30
0
40
0.74999999999999289
210
0
220
-0
230
1
0
CIRCLE
5
243
100
AcDbEntity
8
0
100
AcDbCircle
10
-107.54000000000002
20
-34.079999999999998
30
0
40
0.74999999999999289
210
0
220
-0
230
1
0
CIRCLE
5
244
100
AcDbEntity
8
0
100
AcDbCircle
10
-6.1900000000000013
20
-107.54000000000002
30
0
40
0.75000000000000067
210
0
220
-0
230
1
0
CIRCLE
5
245
100
AcDbEntity
8
0
100
AcDbCircle
10
-12.539999999999999
20
-110.08000000000001
30
0
40
0.74999999999999956
210
0
220
-0
230
1
0
CIRCLE
5
246
100
AcDbEntity
8
0
100
AcDbCircle
10
-12.539999999999999
20
-91.080000000000013
30
0
40
0.74999999999999956
210
0
220
-0
230
1
0
CIRCLE
5
247
100
AcDbEntity
8
0
100
AcDbCircle
10
-6.1900000000000013
20
-88.540000000000006
30
0
40
0.75000000000000067
210
0
220
-0
230
1
0
CIRCLE
5
248
100
AcDbEntity
8
0
100
AcDbCircle
10
-107.54000000000002
20
-53.079999999999998
30
0
40
0.74999999999999289
210
0
220
-0
230
1
0
CIRCLE
5
249
100
AcDbEntity
8
0
100
AcDbCircle
10
-101.19
20
-50.540000000000006
30
0
40
0.74999999999999289
210
0
220
-0
230
1
0
CIRCLE
5
250
100
AcDbEntity
8
0
100
AcDbCircle
10
-101.19
20
-107.54000000000002
30
0
40
0.74999999999999289
210
0
220
-0
230
1
0
CIRCLE
5
251
100
AcDbEntity
8
0
100
AcDbCircle
10
-88.540000000000006
20
-15.08
30
0
40
0.74999999999999289
210
0
220
-0
230
1
0
CIRCLE
5
252
100
AcDbEntity
8
0
100
AcDbCircle
10
-82.189999999999998
20
-12.539999999999999
30
0
40
0.74999999999999289
210
0
220
-0
230
1
0
CIRCLE
5
253
100
AcDbEntity
8
0
100
AcDbCircle
10
-101.19
20
-88.540000000000006
30
0
40
0.74999999999999289
210
0
220
-0
230
1
0
CIRCLE
5
254
100
AcDbEntity
8
0
100
AcDbCircle
10
-107.54000000000002
20
-110.08000000000001
30
0
40
0.74999999999999289
210
0
220
-0
230
1
0
CIRCLE
5
255
100
AcDbEntity
8
0
100
AcDbCircle
10
-102.46000000000001
20
-110.08000000000001
30
0
40
0.74999999999999289
210
0
220
-0
230
1
0
CIRCLE
5
256
100
AcDbEntity
8
0
100
AcDbCircle
10
-108.81
20
-107.54000000000002
30
0
40
0.74999999999999289
210
0
220
-0
230
1
0
CIRCLE
5
257
100
AcDbEntity
8
0
100
AcDbCircle
10
-64.459999999999994
20
-34.079999999999998
30
0
40
0.75000000000000178
210
0
220
-0
230
1
0
CIRCLE
5
258
100
AcDbEntity
8
0
100
AcDbCircle
10
-70.810000000000002
20
-31.539999999999999
30
0
40
0.75000000000000178
210
0
220
-0
230
1
0
CIRCLE
5
259
100
AcDbEntity
8
0
100
AcDbCircle
10
-108.81
20
-88.540000000000006
30
0
40
0.74999999999999289
210
0
220
-0
230
1
0
CIRCLE
5
260
100
AcDbEntity
8
0
100
AcDbCircle
10
-102.46000000000001
20
-91.080000000000013
30
0
40
0.74999999999999289
210
0
220
-0
230
1
0
CIRCLE
5
261
100
AcDbEntity
8
0
100
AcDbCircle
10
-105
20
-105
30
0
40
2
210
0
220
-0
230
1
0
LWPOLYLINE
5
262
100
AcDbEntity
8
0
100
AcDbPolyline
90
108
70
1
43
0.0
10
-103.28857687239079
20
-8.9650937828555008
42
0.0015872520483655725
10
-103.29518194426107
20
-8.9542488838989716
10
-103.32000000000001
20
-8.9135000000000009
10
-103.38800000000001
20
-8.8140199999999993
10
-103.46299999999999
20
-8.7188599999999994
10
-103.54300000000002
20
-8.6283799999999999
10
-103.628
20
-8.5429099999999991
10
-103.71899999999999
20
-8.4627499999999998
10
-103.81399999999999
20
-8.3882000000000012
10
-103.91300000000001
20
-8.3195300000000003
10
-104.017
20
-8.2569999999999979
10
-104.124
20
-8.200820000000002
10
-104.23400000000001
20
-8.151209999999999
10
-104.34699999999999
20
-8.1083499999999997
10
-104.46300000000001
20
-8.0723900000000004
10
-104.58
20
-8.0434599999999978
10
-104.69900000000001
20
-8.0216699999999985
10
-104.81900000000002
20
-8.0071000000000012
10
-104.94
20
-7.9998000000000014
10
-105.06
20
-7.9998000000000014
10
-105.18100000000001
20
-8.0071000000000012
10
-105.30100000000002
20
-8.0216699999999985
10
-105.42000000000002
20
-8.0434599999999978
10
-105.53700000000001
20
-8.0723900000000004
10
-105.65300000000001
20
-8.1083499999999997
10
-105.76600000000001
20
-8.151209999999999
10
-105.87600000000002
20
-8.200820000000002
10
-105.98300000000002
20
-8.2569999999999979
10
-106.087
20
-8.3195300000000003
10
-106.18600000000001
20
-8.3882000000000012
10
-106.28100000000002
20
-8.4627499999999998
10
-106.372
20
-8.5429099999999991
10
-106.45699999999999
20
-8.6283799999999999
10
-106.53700000000001
20
-8.7188599999999994
10
-106.61200000000001
20
-8.8140199999999993
10
-106.68000000000001
20
-8.9135000000000009
10
-106.70481805574144
20
-8.9542488839030749
42
0.0015872520460179786
10
-106.71142312760672
20
-8.9650937828513815
10
-106.74300000000001
20
-9.01694
10
-106.79900000000002
20
-9.1239799999999995
10
-106.849
20
-9.2342099999999974
10
-106.892
20
-9.3472299999999997
10
-106.928
20
-9.4626400000000022
10
-106.95700000000001
20
-9.5800000000000018
10
-106.97800000000001
20
-9.6988999999999983
10
-106.99300000000001
20
-9.8188999999999993
10
-107.00000000000001
20
-9.9395599999999984
10
-107.00000000000001
20
-10.060400000000001
10
-106.99300000000001
20
-10.181100000000001
10
-106.97800000000001
20
-10.301100000000002
10
-106.95700000000001
20
-10.419999999999998
10
-106.928
20
-10.537400000000003
10
-106.892
20
-10.652799999999999
10
-106.849
20
-10.765799999999999
10
-106.79900000000002
20
-10.876000000000001
10
-106.74300000000001
20
-10.9831
10
-106.68000000000001
20
-11.086499999999999
10
-106.61200000000001
20
-11.185999999999998
10
-106.53700000000001
20
-11.281100000000004
10
-106.45699999999999
20
-11.371600000000001
10
-106.372
20
-11.457100000000002
10
-106.28100000000002
20
-11.537300000000004
10
-106.18600000000001
20
-11.611799999999999
10
-106.087
20
-11.6805
10
-105.98300000000002
20
-11.743000000000002
10
-105.87600000000002
20
-11.799200000000001
10
-105.76600000000001
20
-11.848800000000001
10
-105.65300000000001
20
-11.891699999999998
10
-105.53700000000001
20
-11.927599999999998
10
-105.42000000000002
20
-11.956500000000002
10
-105.30100000000002
20
-11.978300000000001
10
-105.18100000000001
20
-11.992900000000004
10
-105.06
20
-12.000200000000003
10
-104.94
20
-12.000200000000003
10
-104.81900000000002
20
-11.992900000000004
10
-104.69900000000001
20
-11.978300000000001
10
-104.58
20
-11.956500000000002
10
-104.46300000000001
20
-11.927599999999998
10
-104.34699999999999
20
-11.891699999999998
10
-104.23400000000001
20
-11.848800000000001
10
-104.124
20
-11.799200000000001
10
-104.017
20
-11.743000000000002
10
-103.91300000000001
20
-11.6805
10
-103.81399999999999
20
-11.611799999999999
10
-103.71899999999999
20
-11.537300000000004
10
-103.628
20
-11.457100000000002
10
-103.54300000000002
20
-11.371600000000001
10
-103.46299999999999
20
-11.281100000000004
10
-103.38800000000001
20
-11.185999999999998
10
-103.32000000000001
20
-11.086499999999999
10
-103.25700000000001
20
-10.9831
10
-103.20099999999999
20
-10.876000000000001
10
-103.15100000000001
20
-10.765799999999999
10
-103.108
20
-10.652799999999999
10
-103.07200000000002
20
-10.537400000000003
10
-103.04300000000001
20
-10.419999999999998
10
-103.02200000000001
20
-10.301100000000002
10
-103.00700000000001
20
-10.181100000000001
10
-103
20
-10.060400000000001
10
-103
20
-9.9395599999999984
10
-103.00700000000001
20
-9.8188999999999993
10
-103.02200000000001
20
-9.6988999999999983
10
-103.04300000000001
20
-9.5800000000000018
10
-103.07200000000002
20
-9.4626400000000022
10
-103.108
20
-9.3472299999999997
10
-103.15100000000001
20
-9.2342099999999974
10
-103.20099999999999
20
-9.1239799999999995
10
-103.25700000000001
20
-9.01694
0
LINE
5
263
100
AcDbEntity
8
0
100
AcDbLine
10
-115
20
-114.50000172108412
30
0
11
-121
21
-114.50000171794446
31
0
0
LWPOLYLINE
5
264
100
AcDbEntity
8
0
100
AcDbPolyline
90
20
70
1
43
0.0
10
-121.00000177323818
20
-126.00000186264515
10
-121.00000177323818
20
-129.23528320335609
10
-110.23528297983867
20
-140.0000019967556
10
-100.5000014975667
20
-140.00000199675557
10
-89.0000014975667
20
-140.00000199675557
10
-85.764719940788922
20
-140.0000019967556
10
-78.264719829030199
20
-132.50000188499689
10
-3.5147187151684012
20
-132.50000188499689
10
5.9999999999999964
20
-122.98528316982851
10
6.0000000000000098
20
-38.014719229258453
10
-0.26471866673961952
20
-31.750000562518828
10
-13.514718864180008
20
-31.750000562518828
10
-38.014719229258453
20
-7.2500001974403805
10
-66.26471965021625
20
-7.2500001974403823
10
-70.000001132488251
20
-3.5147187151683967
10
-70.000001132488251
20
-0.014718663014334221
10
-76.014719795502572
20
6.0000000000000036
10
-115.23528305434451
20
6.0000000000000009
10
-121.00000171320004
20
0.23528134114443766
10
-121.00000177323818
20
-114.50000172003756
0
LWPOLYLINE
5
265
100
AcDbEntity
8
0
100
AcDbPolyline
90
20
70
1
43
0.0
10
-120.00000178813934
20
-126.00000186264515
10
-120.00000178813934
20
-128.82106964715524
10
-109.82106942363784
20
-139.00000201165676
10
-100.5000014975667
20
-139.00000201165676
10
-89.0000014975667
20
-139.00000201165676
10
-86.178933496989757
20
-139.00000201165676
10
-78.678933385231048
20
-131.50000189989805
10
-3.9289322713692432
20
-131.50000189989805
10
5.0000000149011568
20
-122.57106961362766
10
5.0000000149011568
20
-38.428932785459281
10
-0.67893222294045263
20
-32.750000547617674
10
-13.928932420380843
20
-32.750000547617674
10
-38.428932785459288
20
-8.2500001825392211
10
-66.678933206417099
20
-8.2500001825392211
10
-71.00000111758709
20
-3.928932271369229
10
-71.00000111758709
20
-0.42893221921516622
10
-76.428933351703421
20
5.0000000149011647
10
-114.82106949814366
20
5.0000000149011665
10
-120.00000172831795
20
-0.17893221527314762
10
-120.00000178813934
20
-114.50000172056085
0
LWPOLYLINE
5
266
100
AcDbEntity
8
0
100
AcDbPolyline
90
20
70
1
43
0.0
10
-122.00000171298331
20
0.64949490373426233
10
-122.00000177323818
20
-114.5000017195143
10
-122.00000177323818
20
-126.00000186264515
10
-122.00000177323818
20
-129.64949676572917
10
-110.64949654221175
20
-141.0000019967556
10
-100.5000014975667
20
-141.0000019967556
10
-89.0000014975667
20
-141.0000019967556
10
-85.350506378415858
20
-141.00000199675563
10
-77.850506266657121
20
-133.50000188499689
10
-3.1005051527953231
20
-133.50000188499689
10
6.9999999999999947
20
-123.3994967322016
10
7
20
-37.600505666885354
10
0.1494948956334774
20
-30.750000562518835
10
-13.100505301806912
20
-30.750000562518835
10
-37.600505666885368
20
-6.250000197440384
10
-65.850506087843158
20
-6.2500001974403823
10
-69.000001132488251
20
-3.1005051527952916
10
-69.000001132488251
20
0.39949489935877214
10
-75.600506233129479
20
7.0000000000000036
10
-115.64949661671758
20
7.0000000000000089
0
ENDSEC
0
SECTION
2
OBJECTS
0
DICTIONARY
5
C
100
AcDbDictionary
3
ACAD_GROUP
350
D
3
ACAD_MLINESTYLE
350
17
0
DICTIONARY
5
D
100
AcDbDictionary
0
DICTIONARY
5
1A
330
C
100
AcDbDictionary
0
DICTIONARY
5
17
100
AcDbDictionary
0
ENDSEC
0
EOF
